<svg xmlns="http://www.w3.org/2000/svg" xmlns:xlink="http://www.w3.org/1999/xlink" width="500" zoomAndPan="magnify" viewBox="0 0 375 374.999991" height="500" preserveAspectRatio="xMidYMid meet" version="1.0"><defs><g/><clipPath id="0e008c081d"><path d="M 141.730469 123.574219 L 225.714844 123.574219 L 225.714844 251 L 141.730469 251 Z M 141.730469 123.574219 " clip-rule="nonzero"/></clipPath></defs><rect x="-37.5" width="450" fill="#ffffff" y="-37.499999" height="449.999989" fill-opacity="1"/><rect x="-37.5" width="450" fill="#fff8eb" y="-37.499999" height="449.999989" fill-opacity="1"/><g clip-path="url(#0e008c081d)"><path fill="#95614c" d="M 225.335938 157.363281 C 225.296875 157.210938 225.195312 157.070312 224.996094 157.046875 C 224.625 157.003906 224.25 156.960938 223.875 156.917969 C 223.789062 155.566406 223.699219 154.210938 223.605469 152.859375 C 223.804688 152.691406 223.816406 152.324219 223.507812 152.246094 C 223.390625 152.070312 223.144531 152.035156 222.980469 152.136719 C 222.636719 152.070312 222.285156 152.003906 221.941406 151.9375 C 221.96875 151.242188 222 150.554688 222.027344 149.863281 C 222.027344 149.847656 222.027344 149.839844 222.027344 149.824219 C 222.035156 149.636719 221.851562 149.453125 221.664062 149.460938 C 221.589844 149.460938 221.523438 149.488281 221.464844 149.53125 C 215.910156 148.53125 210.324219 147.734375 204.710938 147.140625 C 204.726562 142.523438 204.742188 137.902344 204.753906 133.28125 C 205.152344 133.132812 204.96875 132.484375 204.519531 132.59375 L 200.929688 133.492188 C 200.929688 132.953125 200.921875 132.410156 200.894531 131.878906 C 200.871094 131.371094 200.710938 130.800781 200.167969 130.648438 C 199.949219 130.589844 199.792969 130.722656 199.734375 130.890625 C 198.695312 131.140625 197.648438 131.394531 196.605469 131.65625 C 196.488281 131.023438 196.378906 130.386719 196.261719 129.742188 C 196.234375 129.574219 196.035156 129.464844 195.867188 129.488281 C 195.816406 129.480469 195.761719 129.488281 195.703125 129.5 C 195.171875 129.675781 194.636719 129.851562 194.101562 130.027344 C 194.035156 129.296875 193.976562 128.566406 193.910156 127.835938 C 193.894531 127.644531 193.761719 127.492188 193.566406 127.476562 C 193.476562 127.308594 193.273438 127.183594 193.050781 127.277344 C 191.125 128.125 189.183594 128.953125 187.242188 129.777344 C 187.101562 128.609375 186.953125 127.4375 186.816406 126.277344 C 186.75 125.707031 186.691406 125.128906 186.601562 124.566406 C 186.542969 124.164062 186.375 123.769531 185.949219 123.660156 C 185.796875 123.621094 185.671875 123.679688 185.589844 123.769531 C 185.488281 123.710938 185.363281 123.6875 185.230469 123.753906 C 174.546875 129.316406 163.855469 134.882812 153.167969 140.4375 C 150.148438 142.011719 147.125 143.582031 144.105469 145.160156 C 144.039062 145.199219 144 145.242188 143.972656 145.285156 C 143.480469 145.277344 142.976562 145.378906 142.660156 145.769531 C 142.265625 146.265625 142.417969 146.8125 142.761719 147.246094 C 142.585938 159.21875 142.402344 171.195312 142.226562 183.171875 C 142.214844 183.929688 142.207031 184.699219 142.199219 185.460938 C 142.191406 186.367188 142.175781 187.265625 142.167969 188.171875 C 142.164062 189.195312 142.15625 190.226562 142.140625 191.25 C 142.132812 192.375 142.125 193.5 142.117188 194.625 C 142.109375 195.832031 142.105469 197.039062 142.097656 198.246094 C 142.089844 199.511719 142.082031 200.777344 142.074219 202.046875 C 142.074219 203.355469 142.058594 204.65625 142.050781 205.964844 C 142.050781 207.289062 142.039062 208.613281 142.039062 209.9375 C 142.039062 211.257812 142.03125 212.582031 142.023438 213.898438 C 142.023438 215.199219 142.015625 216.492188 142.007812 217.796875 C 142.007812 219.054688 142 220.304688 141.992188 221.558594 C 141.992188 222.753906 141.984375 223.945312 141.980469 225.136719 C 141.980469 226.238281 141.980469 227.351562 141.972656 228.453125 C 141.972656 229.457031 141.972656 230.457031 141.964844 231.460938 C 141.964844 232.335938 141.964844 233.214844 141.964844 234.085938 C 141.964844 234.816406 141.964844 235.546875 141.964844 236.269531 C 141.964844 236.832031 141.964844 237.394531 141.964844 237.957031 C 141.964844 238.207031 141.738281 240.671875 143.914062 241.804688 C 144.574219 242.148438 145.246094 242.460938 145.972656 242.652344 C 146.339844 242.746094 146.707031 242.828125 147.078125 242.894531 C 147.234375 242.921875 147.402344 242.929688 147.542969 243.011719 C 147.703125 243.105469 147.871094 243.199219 148.054688 243.253906 C 148.28125 243.316406 148.546875 243.316406 148.789062 243.347656 C 149.308594 243.40625 149.820312 243.464844 150.339844 243.523438 C 151.375 243.640625 152.414062 243.757812 153.449219 243.875 C 155.523438 244.109375 157.597656 244.339844 159.664062 244.566406 C 161.738281 244.792969 163.8125 245.019531 165.886719 245.246094 C 167.957031 245.472656 170.03125 245.695312 172.105469 245.914062 C 173.753906 246.089844 175.40625 246.257812 177.054688 246.433594 C 186.742188 247.433594 196.4375 248.382812 206.140625 249.277344 C 211.351562 249.757812 216.554688 250.21875 221.765625 250.664062 C 221.847656 250.964844 222.285156 250.980469 222.433594 250.722656 C 222.460938 250.722656 222.484375 250.722656 222.511719 250.730469 C 222.980469 250.769531 222.980469 250.035156 222.5 250 C 222.910156 238.082031 223.320312 226.160156 223.730469 214.242188 C 224.148438 202.199219 224.558594 190.160156 224.976562 178.117188 C 225.210938 171.328125 225.445312 164.535156 225.679688 157.734375 C 225.6875 157.507812 225.519531 157.390625 225.339844 157.386719 Z M 222.871094 152.851562 C 222.960938 154.175781 223.046875 155.5 223.136719 156.820312 C 213.769531 155.703125 204.410156 154.585938 195.046875 153.464844 C 185.0625 152.273438 175.074219 151.082031 165.09375 149.890625 C 160.9375 149.394531 156.78125 148.898438 152.628906 148.40625 C 153.324219 148.320312 154.019531 148.230469 154.714844 148.152344 C 162.792969 147.675781 170.882812 147.550781 178.972656 147.808594 C 188.507812 148.105469 198.027344 148.917969 207.476562 150.234375 C 212.632812 150.957031 217.765625 151.828125 222.871094 152.851562 Z M 206.105469 148.003906 C 211.191406 148.566406 216.246094 149.3125 221.28125 150.21875 L 221.214844 151.792969 C 212.597656 150.132812 203.90625 148.890625 195.171875 148.078125 C 186.359375 147.265625 177.507812 146.894531 168.65625 146.953125 C 171.9375 146.769531 175.222656 146.660156 178.511719 146.625 C 187.722656 146.519531 196.949219 146.980469 206.105469 147.996094 Z M 204.023438 133.457031 C 204.007812 137.988281 203.992188 142.515625 203.980469 147.046875 C 200.679688 146.710938 197.367188 146.449219 194.054688 146.257812 C 184.761719 145.722656 175.441406 145.761719 166.164062 146.375 C 162.382812 146.625 158.613281 146.972656 154.847656 147.414062 C 153.769531 147.539062 152.671875 147.542969 151.59375 147.625 C 150.765625 147.683594 148.867188 148.136719 148.257812 147.414062 C 148.683594 147.253906 149.132812 147.140625 149.5625 147.011719 C 149.628906 147.039062 149.710938 147.0625 149.804688 147.039062 C 156.953125 145.25 164.097656 143.464844 171.242188 141.671875 C 178.386719 139.882812 185.53125 138.097656 192.679688 136.308594 C 196.460938 135.355469 200.25 134.414062 204.03125 133.464844 Z M 200.117188 131.535156 C 200.117188 131.535156 200.117188 131.554688 200.125 131.5625 C 200.132812 131.605469 200.144531 131.644531 200.152344 131.6875 C 200.152344 131.695312 200.152344 131.746094 200.160156 131.753906 C 200.167969 131.871094 200.167969 131.980469 200.175781 132.097656 C 200.183594 132.617188 200.199219 133.140625 200.203125 133.660156 L 183.101562 137.945312 C 175.953125 139.738281 168.808594 141.519531 161.664062 143.3125 C 158.542969 144.09375 155.414062 144.875 152.289062 145.660156 C 158.160156 143.589844 164.058594 141.621094 170.003906 139.789062 C 176.359375 137.820312 182.753906 135.984375 189.191406 134.289062 C 192.816406 133.332031 196.460938 132.417969 200.117188 131.539062 Z M 195.632812 130.277344 C 195.71875 130.789062 195.816406 131.300781 195.902344 131.8125 C 190.75 133.089844 185.621094 134.449219 180.519531 135.898438 C 175.953125 137.191406 171.402344 138.566406 166.882812 139.992188 C 167.519531 139.765625 168.15625 139.53125 168.792969 139.3125 C 174.523438 137.292969 180.277344 135.328125 186.039062 133.414062 C 189.226562 132.351562 192.421875 131.308594 195.625 130.277344 Z M 193.199219 127.980469 L 193.394531 130.230469 C 188.363281 131.863281 183.335938 133.53125 178.320312 135.238281 C 172.570312 137.199219 166.835938 139.210938 161.121094 141.273438 C 158.660156 142.15625 156.195312 143.054688 153.734375 143.960938 C 152.21875 144.523438 150.722656 145.144531 149.21875 145.761719 C 148.039062 146.242188 146.363281 147.304688 145.070312 146.585938 L 146.472656 146.183594 C 146.53125 146.199219 146.597656 146.207031 146.667969 146.183594 C 152.863281 144.050781 159.019531 141.820312 165.136719 139.496094 C 171.226562 137.175781 177.28125 134.757812 183.296875 132.242188 C 186.609375 130.855469 189.914062 129.441406 193.199219 127.996094 Z M 176.546875 129.070312 C 179.566406 127.496094 182.59375 125.925781 185.613281 124.347656 C 185.644531 124.332031 185.664062 124.308594 185.6875 124.289062 C 185.707031 124.304688 185.730469 124.316406 185.761719 124.324219 C 185.964844 124.375 185.949219 125.160156 185.972656 125.320312 C 186.03125 125.816406 186.097656 126.320312 186.15625 126.816406 C 186.28125 127.820312 186.398438 128.820312 186.523438 129.824219 C 186.53125 129.902344 186.566406 129.96875 186.609375 130.019531 C 182.769531 131.65625 178.914062 133.265625 175.039062 134.824219 C 169.015625 137.242188 162.960938 139.5625 156.863281 141.785156 C 153.507812 143.003906 150.144531 144.195312 146.765625 145.367188 C 146.71875 145.367188 146.667969 145.367188 146.617188 145.375 L 144.941406 145.855469 C 144.992188 145.746094 144.960938 145.628906 144.902344 145.535156 C 155.449219 140.042969 165.996094 134.558594 176.539062 129.070312 Z M 143.210938 146.226562 C 143.363281 145.972656 143.753906 145.957031 144.082031 145.980469 C 144.039062 146.222656 144.074219 146.476562 144.191406 146.703125 C 144.410156 147.121094 144.886719 147.355469 145.335938 147.425781 C 145.832031 147.507812 146.347656 147.441406 146.835938 147.550781 C 147.109375 147.609375 147.359375 147.71875 147.601562 147.859375 C 146.40625 147.960938 145.179688 147.777344 144.089844 147.28125 C 143.949219 147.214844 143.707031 147.089844 143.503906 146.9375 C 143.503906 146.902344 143.503906 146.863281 143.503906 146.828125 C 143.503906 146.601562 143.335938 146.484375 143.160156 146.476562 C 143.144531 146.398438 143.152344 146.308594 143.203125 146.222656 Z M 147.820312 242.273438 C 145.855469 241.921875 143.34375 241.328125 142.691406 239.253906 C 142.835938 227.480469 143.027344 179.253906 143.203125 167.210938 C 143.296875 160.742188 143.394531 154.269531 143.496094 147.800781 C 144.132812 148.171875 144.917969 148.390625 145.621094 148.507812 C 146.308594 148.625 147 148.65625 147.6875 148.597656 C 147.6875 148.625 147.664062 148.640625 147.664062 148.675781 C 148.136719 160.910156 148.433594 173.148438 148.550781 185.394531 C 148.671875 197.574219 148.613281 209.753906 148.375 221.925781 C 148.246094 228.710938 148.0625 235.488281 147.820312 242.273438 Z M 223.683594 194.019531 C 223.269531 206.0625 222.855469 218.101562 222.441406 230.144531 C 222.210938 236.730469 221.984375 243.316406 221.757812 249.90625 C 212.296875 249.09375 202.84375 248.230469 193.394531 247.316406 C 183.699219 246.375 174.011719 245.378906 164.324219 244.335938 C 159.054688 243.765625 153.792969 243.171875 148.53125 242.570312 C 148.53125 242.558594 148.539062 242.550781 148.539062 242.527344 C 148.96875 230.296875 149.226562 218.050781 149.308594 205.8125 C 149.386719 193.632812 149.292969 181.453125 149.023438 169.28125 C 148.867188 162.40625 148.664062 155.542969 148.398438 148.675781 C 148.398438 148.664062 148.390625 148.648438 148.390625 148.632812 C 158.3125 149.816406 168.246094 151.003906 178.167969 152.1875 C 188.148438 153.378906 198.136719 154.570312 208.121094 155.761719 C 213.726562 156.433594 219.332031 157.101562 224.9375 157.773438 C 224.519531 169.859375 224.101562 181.941406 223.683594 194.027344 Z M 223.683594 194.019531 " fill-opacity="1" fill-rule="nonzero"/></g><path fill="#f4e6d4" d="M 171.242188 141.667969 C 164.097656 143.457031 156.953125 145.242188 149.804688 147.03125 C 149.710938 147.054688 149.636719 147.03125 149.5625 147.003906 C 149.132812 147.136719 148.675781 147.246094 148.257812 147.40625 C 148.867188 148.128906 150.773438 147.675781 151.59375 147.617188 C 152.671875 147.542969 153.769531 147.539062 154.847656 147.40625 C 158.609375 146.96875 162.382812 146.617188 166.164062 146.367188 C 175.449219 145.761719 184.769531 145.714844 194.054688 146.25 C 197.367188 146.441406 200.671875 146.703125 203.980469 147.039062 C 203.992188 142.507812 204.007812 137.980469 204.023438 133.449219 C 200.242188 134.398438 196.453125 135.34375 192.671875 136.292969 C 185.527344 138.085938 178.378906 139.867188 171.234375 141.660156 Z M 171.242188 141.667969 " fill-opacity="1" fill-rule="nonzero"/><path fill="#f4e6d4" d="M 168.792969 139.3125 C 168.15625 139.539062 167.519531 139.765625 166.882812 139.992188 C 171.410156 138.558594 175.953125 137.191406 180.519531 135.898438 C 185.621094 134.449219 190.75 133.089844 195.902344 131.8125 C 195.816406 131.300781 195.71875 130.789062 195.632812 130.277344 C 192.429688 131.308594 189.234375 132.351562 186.046875 133.414062 C 180.277344 135.328125 174.53125 137.292969 168.800781 139.3125 Z M 168.792969 139.3125 " fill-opacity="1" fill-rule="nonzero"/><path fill="#f4e6d4" d="M 170.003906 139.78125 C 164.058594 141.621094 158.152344 143.582031 152.289062 145.652344 C 155.414062 144.867188 158.542969 144.085938 161.664062 143.304688 C 168.808594 141.511719 175.953125 139.730469 183.101562 137.9375 L 200.203125 133.652344 C 200.199219 133.132812 200.183594 132.609375 200.175781 132.089844 C 200.175781 131.972656 200.175781 131.863281 200.160156 131.746094 C 200.160156 131.738281 200.160156 131.695312 200.152344 131.679688 C 200.144531 131.636719 200.140625 131.59375 200.125 131.554688 C 200.125 131.546875 200.125 131.535156 200.117188 131.527344 C 196.46875 132.394531 192.824219 133.316406 189.191406 134.273438 C 182.753906 135.972656 176.355469 137.804688 170.003906 139.773438 Z M 170.003906 139.78125 " fill-opacity="1" fill-rule="nonzero"/><path fill="#f4e6d4" d="M 178.964844 147.808594 C 170.882812 147.550781 162.785156 147.675781 154.707031 148.152344 C 154.011719 148.230469 153.316406 148.320312 152.621094 148.40625 C 156.777344 148.902344 160.929688 149.402344 165.085938 149.890625 C 175.066406 151.082031 185.054688 152.273438 195.039062 153.464844 C 204.402344 154.585938 213.761719 155.703125 223.128906 156.820312 C 223.039062 155.5 222.953125 154.175781 222.863281 152.851562 C 217.757812 151.835938 212.625 150.957031 207.46875 150.234375 C 198.019531 148.910156 188.5 148.105469 178.964844 147.808594 Z M 178.964844 147.808594 " fill-opacity="1" fill-rule="nonzero"/><path fill="#f4e6d4" d="M 178.511719 146.628906 C 175.230469 146.667969 171.9375 146.777344 168.65625 146.960938 C 177.507812 146.902344 186.355469 147.273438 195.171875 148.085938 C 203.90625 148.890625 212.605469 150.140625 221.214844 151.800781 L 221.28125 150.226562 C 216.246094 149.320312 211.191406 148.574219 206.105469 148.011719 C 196.945312 146.996094 187.722656 146.535156 178.511719 146.636719 Z M 178.511719 146.628906 " fill-opacity="1" fill-rule="nonzero"/><path fill="#cb9782" d="M 148.546875 185.394531 C 148.429688 173.15625 148.136719 160.917969 147.660156 148.675781 C 147.660156 148.640625 147.671875 148.625 147.679688 148.597656 C 146.992188 148.65625 146.304688 148.625 145.613281 148.507812 C 144.910156 148.386719 144.125 148.164062 143.488281 147.800781 C 143.394531 154.269531 143.296875 160.742188 143.195312 167.210938 C 143.011719 179.253906 142.820312 227.480469 142.683594 239.253906 C 143.335938 241.328125 145.847656 241.921875 147.8125 242.273438 C 148.054688 235.496094 148.238281 228.710938 148.371094 221.925781 C 148.605469 209.746094 148.664062 197.566406 148.546875 185.394531 Z M 148.546875 185.394531 " fill-opacity="1" fill-rule="nonzero"/><path fill="#f4e6d4" d="M 143.511719 146.835938 C 143.511719 146.835938 143.511719 146.910156 143.511719 146.945312 C 143.714844 147.097656 143.957031 147.222656 144.097656 147.289062 C 145.1875 147.785156 146.414062 147.96875 147.605469 147.867188 C 147.367188 147.734375 147.117188 147.625 146.84375 147.558594 C 146.347656 147.449219 145.839844 147.515625 145.34375 147.433594 C 144.894531 147.363281 144.417969 147.128906 144.199219 146.710938 C 144.082031 146.484375 144.046875 146.226562 144.089844 145.988281 C 143.753906 145.964844 143.363281 145.988281 143.21875 146.234375 C 143.167969 146.324219 143.160156 146.410156 143.171875 146.492188 C 143.347656 146.5 143.519531 146.617188 143.519531 146.84375 Z M 143.511719 146.835938 " fill-opacity="1" fill-rule="nonzero"/><path fill="#cb9782" d="M 208.113281 155.761719 C 198.128906 154.570312 188.140625 153.378906 178.160156 152.1875 C 168.238281 151.003906 158.308594 149.816406 148.382812 148.632812 C 148.382812 148.648438 148.390625 148.664062 148.390625 148.675781 C 148.65625 155.542969 148.867188 162.40625 149.015625 169.28125 C 149.285156 181.453125 149.382812 193.640625 149.300781 205.8125 C 149.21875 218.050781 148.964844 230.296875 148.53125 242.527344 C 148.53125 242.542969 148.523438 242.558594 148.523438 242.570312 C 153.785156 243.171875 159.046875 243.765625 164.316406 244.335938 C 174.003906 245.386719 183.691406 246.382812 193.390625 247.316406 C 202.835938 248.230469 212.289062 249.09375 221.75 249.90625 C 221.976562 243.316406 222.207031 236.730469 222.433594 230.144531 C 222.851562 218.101562 223.261719 206.0625 223.679688 194.019531 C 224.097656 181.933594 224.511719 169.851562 224.929688 157.765625 C 219.324219 157.09375 213.71875 156.425781 208.113281 155.753906 Z M 208.113281 155.761719 " fill-opacity="1" fill-rule="nonzero"/><path fill="#f4e6d4" d="M 144.945312 145.855469 L 146.625 145.375 C 146.675781 145.359375 146.726562 145.359375 146.773438 145.367188 C 150.148438 144.203125 153.515625 143.011719 156.871094 141.785156 C 162.96875 139.5625 169.027344 137.234375 175.046875 134.824219 C 178.921875 133.265625 182.777344 131.65625 186.617188 130.019531 C 186.574219 129.96875 186.535156 129.902344 186.53125 129.824219 C 186.40625 128.820312 186.289062 127.820312 186.164062 126.816406 C 186.105469 126.320312 186.039062 125.816406 185.980469 125.320312 C 185.957031 125.160156 185.972656 124.375 185.765625 124.324219 C 185.738281 124.316406 185.714844 124.304688 185.695312 124.289062 C 185.671875 124.308594 185.648438 124.332031 185.621094 124.347656 C 182.601562 125.917969 179.574219 127.492188 176.554688 129.070312 C 166.007812 134.558594 155.464844 140.042969 144.917969 145.535156 C 144.976562 145.628906 145.003906 145.746094 144.953125 145.855469 Z M 144.945312 145.855469 " fill-opacity="1" fill-rule="nonzero"/><path fill="#f4e6d4" d="M 165.136719 139.480469 C 159.019531 141.8125 152.863281 144.042969 146.667969 146.171875 C 146.597656 146.199219 146.53125 146.191406 146.472656 146.171875 L 145.070312 146.570312 C 146.363281 147.289062 148.039062 146.226562 149.21875 145.746094 C 150.714844 145.132812 152.210938 144.511719 153.734375 143.949219 C 156.1875 143.039062 158.652344 142.140625 161.121094 141.257812 C 166.835938 139.195312 172.570312 137.183594 178.320312 135.226562 C 183.335938 133.515625 188.363281 131.855469 193.394531 130.21875 L 193.199219 127.964844 C 189.90625 129.414062 186.609375 130.824219 183.296875 132.214844 C 177.289062 134.726562 171.234375 137.148438 165.136719 139.464844 Z M 165.136719 139.480469 " fill-opacity="1" fill-rule="nonzero"/><path fill="#f4e6d4" d="M 204.945312 182.726562 C 204.9375 182.621094 204.925781 182.519531 204.910156 182.417969 C 203.628906 182.277344 202.578125 181.722656 201.90625 180.582031 C 201.105469 179.238281 201.164062 177.519531 201.964844 176.1875 C 202.109375 175.949219 201.917969 175.640625 201.648438 175.640625 C 192.992188 175.480469 184.351562 174.75 175.792969 173.417969 C 173.367188 173.039062 170.949219 172.613281 168.53125 172.144531 C 168.363281 172.109375 168.222656 172.191406 168.148438 172.304688 C 167.996094 172.335938 167.863281 172.4375 167.886719 172.644531 C 168.070312 174.753906 166.355469 176.796875 164.207031 176.914062 C 164.007812 176.917969 163.839844 177.074219 163.839844 177.277344 C 163.796875 186.191406 163.757812 195.09375 163.714844 204.007812 C 163.699219 206.527344 163.695312 209.050781 163.679688 211.582031 C 163.679688 211.777344 163.847656 211.945312 164.046875 211.945312 C 166.257812 211.9375 168.003906 214.375 167.304688 216.457031 C 167.160156 216.902344 167.863281 217.09375 168.011719 216.65625 C 168.816406 214.234375 166.902344 211.480469 164.410156 211.238281 C 164.457031 202.441406 164.492188 193.648438 164.535156 184.851562 C 164.550781 182.441406 164.558594 180.019531 164.574219 177.605469 C 166.835938 177.292969 168.675781 175.210938 168.625 172.90625 C 177.097656 174.535156 185.671875 175.609375 194.28125 176.101562 C 196.539062 176.226562 198.796875 176.3125 201.0625 176.355469 C 200.410156 177.820312 200.453125 179.558594 201.273438 180.957031 C 201.917969 182.042969 202.976562 182.820312 204.164062 183.183594 C 203.597656 191.972656 203.039062 200.761719 202.476562 209.542969 C 202.324219 211.910156 202.175781 214.269531 202.023438 216.640625 C 200.636719 216.097656 199.015625 216.289062 197.851562 217.246094 C 196.753906 218.144531 196.238281 219.609375 196.414062 220.988281 C 188.949219 219.960938 181.480469 218.929688 174.011719 217.90625 L 167.503906 217.003906 C 167.042969 216.941406 166.84375 217.648438 167.304688 217.707031 C 174.957031 218.761719 182.609375 219.820312 190.261719 220.875 L 196.765625 221.773438 C 197.039062 221.808594 197.296875 221.617188 197.214844 221.320312 C 196.886719 220.078125 197.28125 218.6875 198.261719 217.847656 C 199.28125 216.96875 200.804688 216.824219 202 217.421875 C 202.117188 217.730469 202.683594 217.679688 202.710938 217.269531 C 203.289062 208.152344 203.875 199.042969 204.457031 189.925781 C 204.535156 188.691406 204.617188 187.453125 204.691406 186.21875 C 204.761719 185.078125 205.054688 183.886719 204.9375 182.730469 Z M 204.945312 182.726562 " fill-opacity="1" fill-rule="nonzero"/><g fill="#444243" fill-opacity="1"><g transform="translate(162.588552, 209.644691)"><g><path d="M 5.546875 -7.4375 C 4.953125 -7.25 4.453125 -7.269531 4.046875 -7.5 C 3.648438 -7.738281 3.378906 -8.082031 3.234375 -8.53125 C 3.085938 -8.988281 3.117188 -9.441406 3.328125 -9.890625 C 3.546875 -10.335938 4.003906 -10.671875 4.703125 -10.890625 C 5.160156 -11.035156 5.660156 -11.207031 6.203125 -11.40625 C 6.753906 -11.601562 7.3125 -11.800781 7.875 -12 C 7.894531 -13.34375 7.925781 -14.691406 7.96875 -16.046875 C 8.019531 -17.410156 8.054688 -18.796875 8.078125 -20.203125 C 7.640625 -20.191406 7.1875 -20.175781 6.71875 -20.15625 C 6.25 -20.132812 5.78125 -20.101562 5.3125 -20.0625 C 4.738281 -20.039062 4.289062 -20.21875 3.96875 -20.59375 C 3.65625 -20.976562 3.507812 -21.40625 3.53125 -21.875 C 3.550781 -22.257812 3.710938 -22.625 4.015625 -22.96875 C 4.316406 -23.3125 4.769531 -23.5 5.375 -23.53125 C 5.84375 -23.570312 6.304688 -23.601562 6.765625 -23.625 C 7.234375 -23.644531 7.703125 -23.65625 8.171875 -23.65625 L 8.421875 -29.734375 C 8.441406 -30.316406 8.644531 -30.734375 9.03125 -30.984375 C 9.414062 -31.242188 9.832031 -31.367188 10.28125 -31.359375 C 10.726562 -31.335938 11.144531 -31.164062 11.53125 -30.84375 C 11.914062 -30.53125 12.097656 -30.085938 12.078125 -29.515625 L 11.84375 -23.765625 C 12.332031 -23.773438 12.789062 -23.78125 13.21875 -23.78125 C 13.644531 -23.789062 14.023438 -23.804688 14.359375 -23.828125 C 15.023438 -23.859375 15.53125 -23.703125 15.875 -23.359375 C 16.21875 -23.015625 16.394531 -22.609375 16.40625 -22.140625 C 16.425781 -21.671875 16.285156 -21.253906 15.984375 -20.890625 C 15.691406 -20.535156 15.222656 -20.351562 14.578125 -20.34375 C 14.085938 -20.332031 13.609375 -20.328125 13.140625 -20.328125 L 11.75 -20.3125 C 11.65625 -18.03125 11.597656 -15.742188 11.578125 -13.453125 C 12.535156 -13.859375 13.238281 -14.175781 13.6875 -14.40625 C 14.28125 -14.71875 14.785156 -14.769531 15.203125 -14.5625 C 15.617188 -14.363281 15.90625 -14.050781 16.0625 -13.625 C 16.226562 -13.195312 16.238281 -12.75 16.09375 -12.28125 C 15.957031 -11.820312 15.609375 -11.46875 15.046875 -11.21875 C 14.515625 -10.957031 13.953125 -10.707031 13.359375 -10.46875 C 12.773438 -10.238281 12.160156 -9.984375 11.515625 -9.703125 C 11.484375 -8.234375 11.457031 -6.765625 11.4375 -5.296875 C 11.414062 -3.828125 11.394531 -2.363281 11.375 -0.90625 C 11.382812 -0.375 11.179688 0.03125 10.765625 0.3125 C 10.347656 0.59375 9.90625 0.722656 9.4375 0.703125 C 8.976562 0.691406 8.566406 0.523438 8.203125 0.203125 C 7.835938 -0.109375 7.664062 -0.566406 7.6875 -1.171875 C 7.707031 -2.378906 7.726562 -3.566406 7.75 -4.734375 C 7.769531 -5.898438 7.785156 -7.078125 7.796875 -8.265625 C 7.441406 -8.140625 7.070312 -8 6.6875 -7.84375 C 6.3125 -7.695312 5.929688 -7.5625 5.546875 -7.4375 Z M 17.796875 -2.703125 C 17.578125 -2.210938 17.253906 -1.914062 16.828125 -1.8125 C 16.398438 -1.707031 15.984375 -1.757812 15.578125 -1.96875 C 15.179688 -2.175781 14.882812 -2.492188 14.6875 -2.921875 C 14.5 -3.359375 14.523438 -3.875 14.765625 -4.46875 C 15.441406 -6.070312 16.015625 -7.597656 16.484375 -9.046875 C 16.953125 -10.492188 17.347656 -12.003906 17.671875 -13.578125 C 17.992188 -15.160156 18.269531 -16.914062 18.5 -18.84375 C 18.726562 -20.769531 18.929688 -23.023438 19.109375 -25.609375 C 18.523438 -25.796875 18.160156 -26.160156 18.015625 -26.703125 C 17.878906 -27.242188 17.941406 -27.753906 18.203125 -28.234375 C 18.472656 -28.722656 18.910156 -28.976562 19.515625 -29 C 20.210938 -29.03125 21.109375 -29.0625 22.203125 -29.09375 C 23.304688 -29.132812 24.5 -29.160156 25.78125 -29.171875 C 27.0625 -29.191406 28.335938 -29.203125 29.609375 -29.203125 C 30.878906 -29.210938 32.066406 -29.21875 33.171875 -29.21875 C 34.273438 -29.21875 35.171875 -29.203125 35.859375 -29.171875 C 36.492188 -29.140625 36.953125 -28.945312 37.234375 -28.59375 C 37.515625 -28.238281 37.644531 -27.828125 37.625 -27.359375 C 37.601562 -26.890625 37.445312 -26.484375 37.15625 -26.140625 C 36.875 -25.796875 36.472656 -25.632812 35.953125 -25.65625 C 35.210938 -25.664062 34.304688 -25.671875 33.234375 -25.671875 C 32.160156 -25.671875 31.007812 -25.675781 29.78125 -25.6875 C 28.550781 -25.695312 27.320312 -25.691406 26.09375 -25.671875 C 24.863281 -25.660156 23.726562 -25.648438 22.6875 -25.640625 C 22.519531 -22.859375 22.3125 -20.40625 22.0625 -18.28125 C 21.8125 -16.164062 21.488281 -14.242188 21.09375 -12.515625 C 20.707031 -10.785156 20.25 -9.132812 19.71875 -7.5625 C 19.195312 -5.988281 18.554688 -4.367188 17.796875 -2.703125 Z M 30.03125 0.640625 C 28.257812 1.066406 26.894531 1.273438 25.9375 1.265625 C 24.988281 1.253906 24.335938 1.046875 23.984375 0.640625 C 23.628906 0.242188 23.441406 -0.3125 23.421875 -1.03125 C 23.398438 -1.9375 23.390625 -2.945312 23.390625 -4.0625 C 23.390625 -5.175781 23.410156 -6.289062 23.453125 -7.40625 C 23.503906 -8.53125 23.566406 -9.5625 23.640625 -10.5 C 23.691406 -11.070312 23.898438 -11.472656 24.265625 -11.703125 C 24.628906 -11.941406 25.035156 -12.035156 25.484375 -11.984375 C 25.941406 -11.929688 26.328125 -11.769531 26.640625 -11.5 C 26.960938 -11.226562 27.113281 -10.859375 27.09375 -10.390625 C 27.019531 -9.128906 26.957031 -7.753906 26.90625 -6.265625 C 26.851562 -4.773438 26.84375 -3.335938 26.875 -1.953125 C 27.5625 -2.066406 28.09375 -2.1875 28.46875 -2.3125 C 28.84375 -2.4375 29.222656 -2.539062 29.609375 -2.625 C 30.109375 -2.738281 30.523438 -2.675781 30.859375 -2.4375 C 31.203125 -2.195312 31.421875 -1.859375 31.515625 -1.421875 C 31.617188 -0.992188 31.5625 -0.582031 31.34375 -0.1875 C 31.125 0.207031 30.6875 0.484375 30.03125 0.640625 Z M 34.421875 -0.015625 C 33.085938 -1.191406 31.945312 -2.4375 31 -3.75 C 30.050781 -5.070312 29.203125 -6.625 28.453125 -8.40625 C 28.234375 -8.9375 28.210938 -9.410156 28.390625 -9.828125 C 28.566406 -10.242188 28.847656 -10.546875 29.234375 -10.734375 C 29.628906 -10.929688 30.035156 -10.957031 30.453125 -10.8125 C 30.878906 -10.664062 31.222656 -10.3125 31.484375 -9.75 L 32 -8.625 C 32.144531 -8.257812 32.296875 -7.925781 32.453125 -7.625 L 32.640625 -7.75 C 33.140625 -8.019531 33.550781 -8.285156 33.875 -8.546875 C 34.207031 -8.816406 34.597656 -9.117188 35.046875 -9.453125 C 35.472656 -9.765625 35.875 -9.875 36.25 -9.78125 C 36.632812 -9.695312 36.953125 -9.492188 37.203125 -9.171875 C 37.453125 -8.847656 37.566406 -8.492188 37.546875 -8.109375 C 37.535156 -7.734375 37.328125 -7.390625 36.921875 -7.078125 C 36.585938 -6.816406 36.3125 -6.601562 36.09375 -6.4375 C 35.882812 -6.269531 35.664062 -6.101562 35.4375 -5.9375 C 35.21875 -5.78125 34.894531 -5.578125 34.46875 -5.328125 C 34.382812 -5.296875 34.304688 -5.257812 34.234375 -5.21875 C 34.160156 -5.1875 34.097656 -5.15625 34.046875 -5.125 C 34.460938 -4.582031 34.894531 -4.09375 35.34375 -3.65625 C 35.800781 -3.21875 36.320312 -2.75 36.90625 -2.25 C 37.40625 -1.8125 37.644531 -1.347656 37.625 -0.859375 C 37.613281 -0.441406 37.441406 -0.09375 37.109375 0.1875 C 36.773438 0.476562 36.363281 0.617188 35.875 0.609375 C 35.382812 0.597656 34.898438 0.390625 34.421875 -0.015625 Z M 24.359375 -12.6875 C 23.765625 -12.6875 23.320312 -12.847656 23.03125 -13.171875 C 22.75 -13.503906 22.609375 -13.890625 22.609375 -14.328125 C 22.617188 -14.765625 22.757812 -15.164062 23.03125 -15.53125 C 23.3125 -15.894531 23.738281 -16.070312 24.3125 -16.0625 C 25.882812 -16.132812 27.617188 -16.175781 29.515625 -16.1875 C 31.410156 -16.195312 33.5 -16.15625 35.78125 -16.0625 C 36.269531 -16.039062 36.644531 -15.859375 36.90625 -15.515625 C 37.164062 -15.179688 37.296875 -14.796875 37.296875 -14.359375 C 37.296875 -13.921875 37.148438 -13.535156 36.859375 -13.203125 C 36.566406 -12.867188 36.101562 -12.710938 35.46875 -12.734375 C 33.632812 -12.773438 31.71875 -12.796875 29.71875 -12.796875 C 27.726562 -12.796875 25.941406 -12.757812 24.359375 -12.6875 Z M 25.484375 -19.296875 C 24.929688 -19.285156 24.515625 -19.441406 24.234375 -19.765625 C 23.960938 -20.097656 23.828125 -20.46875 23.828125 -20.875 C 23.828125 -21.289062 23.960938 -21.664062 24.234375 -22 C 24.515625 -22.332031 24.914062 -22.5 25.4375 -22.5 C 27.070312 -22.519531 28.554688 -22.53125 29.890625 -22.53125 C 31.234375 -22.53125 32.703125 -22.5 34.296875 -22.4375 C 34.878906 -22.414062 35.296875 -22.238281 35.546875 -21.90625 C 35.804688 -21.582031 35.921875 -21.207031 35.890625 -20.78125 C 35.867188 -20.351562 35.703125 -19.976562 35.390625 -19.65625 C 35.078125 -19.34375 34.628906 -19.203125 34.046875 -19.234375 C 33.003906 -19.273438 32.035156 -19.289062 31.140625 -19.28125 C 30.242188 -19.28125 29.347656 -19.285156 28.453125 -19.296875 C 27.566406 -19.304688 26.578125 -19.304688 25.484375 -19.296875 Z M 25.484375 -19.296875 "/></g></g></g><g fill="#444243" fill-opacity="1"><g transform="translate(127.65215, 318.04035)"><g><path d="M 1.4375 -8.203125 L 1.4375 -9.953125 C 1.445312 -11.179688 1.734375 -12.160156 2.296875 -12.890625 C 2.867188 -13.628906 3.65625 -14 4.65625 -14 C 5.082031 -14 5.488281 -13.9375 5.875 -13.8125 C 6.269531 -13.6875 6.550781 -13.5625 6.71875 -13.4375 L 6.984375 -13.265625 L 6 -11.265625 C 5.738281 -11.410156 5.457031 -11.484375 5.15625 -11.484375 C 4.800781 -11.484375 4.5625 -11.363281 4.4375 -11.125 C 4.320312 -10.882812 4.265625 -10.46875 4.265625 -9.875 L 4.265625 -8.203125 L 6.15625 -8.203125 L 6.15625 -6.046875 L 4.265625 -6.046875 L 4.265625 0 L 1.4375 0 L 1.4375 -6.046875 L 0.25 -6.046875 L 0.25 -8.203125 Z M 1.4375 -8.203125 "/></g></g></g><g fill="#444243" fill-opacity="1"><g transform="translate(135.250697, 318.04035)"><g><path d="M 3.625 -8.203125 L 3.625 -4.296875 C 3.625 -3.492188 3.75 -2.921875 4 -2.578125 C 4.25 -2.234375 4.664062 -2.0625 5.25 -2.0625 C 5.832031 -2.0625 6.242188 -2.234375 6.484375 -2.578125 C 6.734375 -2.921875 6.859375 -3.492188 6.859375 -4.296875 L 6.859375 -8.203125 L 9.703125 -8.203125 L 9.703125 -3.609375 C 9.703125 -2.242188 9.34375 -1.257812 8.625 -0.65625 C 7.914062 -0.0625 6.785156 0.234375 5.234375 0.234375 C 3.691406 0.234375 2.566406 -0.0625 1.859375 -0.65625 C 1.148438 -1.257812 0.796875 -2.242188 0.796875 -3.609375 L 0.796875 -8.203125 Z M 3.625 -8.203125 "/></g></g></g><g fill="#444243" fill-opacity="1"><g transform="translate(147.344163, 318.04035)"><g><path d="M 0.953125 0 L 0.953125 -8.203125 L 3.796875 -8.203125 L 3.796875 -7.03125 L 3.828125 -7.03125 C 3.847656 -7.070312 3.878906 -7.125 3.921875 -7.1875 C 3.972656 -7.25 4.078125 -7.359375 4.234375 -7.515625 C 4.398438 -7.679688 4.570312 -7.828125 4.75 -7.953125 C 4.9375 -8.078125 5.171875 -8.191406 5.453125 -8.296875 C 5.742188 -8.398438 6.039062 -8.453125 6.34375 -8.453125 C 6.644531 -8.453125 6.945312 -8.40625 7.25 -8.3125 C 7.550781 -8.226562 7.769531 -8.144531 7.90625 -8.0625 L 8.125 -7.9375 L 6.9375 -5.53125 C 6.59375 -5.832031 6.101562 -5.984375 5.46875 -5.984375 C 5.125 -5.984375 4.828125 -5.90625 4.578125 -5.75 C 4.335938 -5.601562 4.164062 -5.421875 4.0625 -5.203125 C 3.96875 -4.992188 3.898438 -4.816406 3.859375 -4.671875 C 3.816406 -4.523438 3.796875 -4.40625 3.796875 -4.3125 L 3.796875 0 Z M 0.953125 0 "/></g></g></g><g fill="#444243" fill-opacity="1"><g transform="translate(156.910236, 318.04035)"><g><path d="M 1.234375 -12.78125 C 1.566406 -13.113281 1.960938 -13.28125 2.421875 -13.28125 C 2.878906 -13.28125 3.269531 -13.113281 3.59375 -12.78125 C 3.925781 -12.445312 4.09375 -12.050781 4.09375 -11.59375 C 4.09375 -11.132812 3.925781 -10.738281 3.59375 -10.40625 C 3.269531 -10.082031 2.878906 -9.921875 2.421875 -9.921875 C 1.960938 -9.921875 1.566406 -10.082031 1.234375 -10.40625 C 0.898438 -10.738281 0.734375 -11.132812 0.734375 -11.59375 C 0.734375 -12.050781 0.898438 -12.445312 1.234375 -12.78125 Z M 0.953125 -8.203125 L 0.953125 0 L 3.796875 0 L 3.796875 -8.203125 Z M 0.953125 -8.203125 "/></g></g></g><g fill="#444243" fill-opacity="1"><g transform="translate(163.341063, 318.04035)"><g><path d="M 0.59375 2.015625 L 2.90625 0.875 C 3.332031 1.582031 4.078125 1.9375 5.140625 1.9375 C 5.628906 1.9375 6.082031 1.773438 6.5 1.453125 C 6.925781 1.140625 7.140625 0.660156 7.140625 0.015625 L 7.140625 -0.59375 C 6.640625 -0.0390625 5.742188 0.234375 4.453125 0.234375 C 3.265625 0.234375 2.285156 -0.179688 1.515625 -1.015625 C 0.753906 -1.847656 0.375 -2.875 0.375 -4.09375 C 0.375 -5.3125 0.753906 -6.34375 1.515625 -7.1875 C 2.285156 -8.03125 3.265625 -8.453125 4.453125 -8.453125 C 5.503906 -8.453125 6.382812 -8.125 7.09375 -7.46875 L 7.140625 -7.46875 L 7.140625 -8.203125 L 9.96875 -8.203125 L 9.96875 0.21875 C 9.96875 1.550781 9.523438 2.582031 8.640625 3.3125 C 7.753906 4.039062 6.585938 4.40625 5.140625 4.40625 C 2.785156 4.40625 1.269531 3.609375 0.59375 2.015625 Z M 3.921875 -5.484375 C 3.554688 -5.117188 3.375 -4.65625 3.375 -4.09375 C 3.375 -3.53125 3.550781 -3.066406 3.90625 -2.703125 C 4.257812 -2.347656 4.722656 -2.171875 5.296875 -2.171875 C 5.847656 -2.171875 6.300781 -2.351562 6.65625 -2.71875 C 7.019531 -3.082031 7.203125 -3.539062 7.203125 -4.09375 C 7.203125 -4.65625 7.015625 -5.117188 6.640625 -5.484375 C 6.273438 -5.847656 5.828125 -6.03125 5.296875 -6.03125 C 4.753906 -6.03125 4.296875 -5.847656 3.921875 -5.484375 Z M 3.921875 -5.484375 "/></g></g></g><g fill="#444243" fill-opacity="1"><g transform="translate(175.866426, 318.04035)"><g><path d="M 1.515625 -1.015625 C 0.753906 -1.847656 0.375 -2.875 0.375 -4.09375 C 0.375 -5.3125 0.753906 -6.34375 1.515625 -7.1875 C 2.285156 -8.03125 3.265625 -8.453125 4.453125 -8.453125 C 5.535156 -8.453125 6.429688 -8.109375 7.140625 -7.421875 L 7.140625 -8.203125 L 9.96875 -8.203125 L 9.96875 0 L 7.171875 0 L 7.171875 -0.921875 L 7.140625 -0.921875 C 6.429688 -0.148438 5.535156 0.234375 4.453125 0.234375 C 3.265625 0.234375 2.285156 -0.179688 1.515625 -1.015625 Z M 3.921875 -5.484375 C 3.554688 -5.117188 3.375 -4.65625 3.375 -4.09375 C 3.375 -3.53125 3.550781 -3.066406 3.90625 -2.703125 C 4.257812 -2.347656 4.722656 -2.171875 5.296875 -2.171875 C 5.847656 -2.171875 6.300781 -2.351562 6.65625 -2.71875 C 7.019531 -3.082031 7.203125 -3.539062 7.203125 -4.09375 C 7.203125 -4.65625 7.015625 -5.117188 6.640625 -5.484375 C 6.273438 -5.847656 5.828125 -6.03125 5.296875 -6.03125 C 4.753906 -6.03125 4.296875 -5.847656 3.921875 -5.484375 Z M 3.921875 -5.484375 "/></g></g></g><g fill="#444243" fill-opacity="1"><g transform="translate(188.391789, 318.04035)"><g><path d="M 0.953125 0 L 0.953125 -8.203125 L 3.796875 -8.203125 L 3.796875 -7.34375 L 3.828125 -7.34375 C 4.554688 -8.082031 5.335938 -8.453125 6.171875 -8.453125 C 6.578125 -8.453125 6.976562 -8.394531 7.375 -8.28125 C 7.78125 -8.175781 8.164062 -8.007812 8.53125 -7.78125 C 8.90625 -7.5625 9.207031 -7.242188 9.4375 -6.828125 C 9.664062 -6.421875 9.78125 -5.945312 9.78125 -5.40625 L 9.78125 0 L 6.9375 0 L 6.9375 -4.640625 C 6.9375 -5.066406 6.800781 -5.4375 6.53125 -5.75 C 6.257812 -6.070312 5.90625 -6.234375 5.46875 -6.234375 C 5.039062 -6.234375 4.65625 -6.066406 4.3125 -5.734375 C 3.96875 -5.410156 3.796875 -5.046875 3.796875 -4.640625 L 3.796875 0 Z M 0.953125 0 "/></g></g></g><g fill="#444243" fill-opacity="1"><g transform="translate(200.565235, 318.04035)"><g><path d="M 1.515625 -1.015625 C 0.753906 -1.847656 0.375 -2.875 0.375 -4.09375 C 0.375 -5.3125 0.753906 -6.34375 1.515625 -7.1875 C 2.285156 -8.03125 3.265625 -8.453125 4.453125 -8.453125 C 5.535156 -8.453125 6.429688 -8.109375 7.140625 -7.421875 L 7.140625 -8.203125 L 9.96875 -8.203125 L 9.96875 0 L 7.171875 0 L 7.171875 -0.921875 L 7.140625 -0.921875 C 6.429688 -0.148438 5.535156 0.234375 4.453125 0.234375 C 3.265625 0.234375 2.285156 -0.179688 1.515625 -1.015625 Z M 3.921875 -5.484375 C 3.554688 -5.117188 3.375 -4.65625 3.375 -4.09375 C 3.375 -3.53125 3.550781 -3.066406 3.90625 -2.703125 C 4.257812 -2.347656 4.722656 -2.171875 5.296875 -2.171875 C 5.847656 -2.171875 6.300781 -2.351562 6.65625 -2.71875 C 7.019531 -3.082031 7.203125 -3.539062 7.203125 -4.09375 C 7.203125 -4.65625 7.015625 -5.117188 6.640625 -5.484375 C 6.273438 -5.847656 5.828125 -6.03125 5.296875 -6.03125 C 4.753906 -6.03125 4.296875 -5.847656 3.921875 -5.484375 Z M 3.921875 -5.484375 "/></g></g></g><g fill="#444243" fill-opacity="1"><g transform="translate(213.090598, 318.04035)"><g/></g></g><g fill="#444243" fill-opacity="1"><g transform="translate(219.057535, 318.04035)"><g><path d="M 1.515625 -1.015625 C 0.753906 -1.847656 0.375 -2.875 0.375 -4.09375 C 0.375 -5.3125 0.753906 -6.34375 1.515625 -7.1875 C 2.285156 -8.03125 3.265625 -8.453125 4.453125 -8.453125 C 5.535156 -8.453125 6.429688 -8.109375 7.140625 -7.421875 L 7.140625 -8.203125 L 9.96875 -8.203125 L 9.96875 0 L 7.171875 0 L 7.171875 -0.921875 L 7.140625 -0.921875 C 6.429688 -0.148438 5.535156 0.234375 4.453125 0.234375 C 3.265625 0.234375 2.285156 -0.179688 1.515625 -1.015625 Z M 3.921875 -5.484375 C 3.554688 -5.117188 3.375 -4.65625 3.375 -4.09375 C 3.375 -3.53125 3.550781 -3.066406 3.90625 -2.703125 C 4.257812 -2.347656 4.722656 -2.171875 5.296875 -2.171875 C 5.847656 -2.171875 6.300781 -2.351562 6.65625 -2.71875 C 7.019531 -3.082031 7.203125 -3.539062 7.203125 -4.09375 C 7.203125 -4.65625 7.015625 -5.117188 6.640625 -5.484375 C 6.273438 -5.847656 5.828125 -6.03125 5.296875 -6.03125 C 4.753906 -6.03125 4.296875 -5.847656 3.921875 -5.484375 Z M 3.921875 -5.484375 "/></g></g></g><g fill="#444243" fill-opacity="1"><g transform="translate(231.582898, 318.04035)"><g><path d="M 9.40625 -7.1875 C 10.175781 -6.351562 10.5625 -5.328125 10.5625 -4.109375 C 10.5625 -2.890625 10.175781 -1.859375 9.40625 -1.015625 C 8.632812 -0.179688 7.660156 0.234375 6.484375 0.234375 C 5.390625 0.234375 4.492188 -0.101562 3.796875 -0.78125 L 3.796875 4.15625 L 0.953125 4.15625 L 0.953125 -8.203125 L 3.765625 -8.203125 L 3.765625 -7.28125 L 3.796875 -7.28125 C 4.492188 -8.0625 5.390625 -8.453125 6.484375 -8.453125 C 7.660156 -8.453125 8.632812 -8.03125 9.40625 -7.1875 Z M 7 -2.71875 C 7.363281 -3.082031 7.546875 -3.546875 7.546875 -4.109375 C 7.546875 -4.671875 7.367188 -5.128906 7.015625 -5.484375 C 6.671875 -5.847656 6.207031 -6.03125 5.625 -6.03125 C 5.070312 -6.03125 4.617188 -5.847656 4.265625 -5.484375 C 3.910156 -5.117188 3.734375 -4.660156 3.734375 -4.109375 C 3.734375 -3.546875 3.914062 -3.082031 4.28125 -2.71875 C 4.644531 -2.351562 5.09375 -2.171875 5.625 -2.171875 C 6.175781 -2.171875 6.632812 -2.351562 7 -2.71875 Z M 7 -2.71875 "/></g></g></g><g fill="#444243" fill-opacity="1"><g transform="translate(244.108261, 318.04035)"><g><path d="M 9.40625 -7.1875 C 10.175781 -6.351562 10.5625 -5.328125 10.5625 -4.109375 C 10.5625 -2.890625 10.175781 -1.859375 9.40625 -1.015625 C 8.632812 -0.179688 7.660156 0.234375 6.484375 0.234375 C 5.390625 0.234375 4.492188 -0.101562 3.796875 -0.78125 L 3.796875 4.15625 L 0.953125 4.15625 L 0.953125 -8.203125 L 3.765625 -8.203125 L 3.765625 -7.28125 L 3.796875 -7.28125 C 4.492188 -8.0625 5.390625 -8.453125 6.484375 -8.453125 C 7.660156 -8.453125 8.632812 -8.03125 9.40625 -7.1875 Z M 7 -2.71875 C 7.363281 -3.082031 7.546875 -3.546875 7.546875 -4.109375 C 7.546875 -4.671875 7.367188 -5.128906 7.015625 -5.484375 C 6.671875 -5.847656 6.207031 -6.03125 5.625 -6.03125 C 5.070312 -6.03125 4.617188 -5.847656 4.265625 -5.484375 C 3.910156 -5.117188 3.734375 -4.660156 3.734375 -4.109375 C 3.734375 -3.546875 3.914062 -3.082031 4.28125 -2.71875 C 4.644531 -2.351562 5.09375 -2.171875 5.625 -2.171875 C 6.175781 -2.171875 6.632812 -2.351562 7 -2.71875 Z M 7 -2.71875 "/></g></g></g><g fill="#e18256" fill-opacity="1"><g transform="translate(71.788857, 86.859592)"><g><path d="M 17.734375 -15.96875 C 18.90625 -16.796875 20.671875 -18.203125 21.4375 -18.84375 L 20.828125 -20.515625 C 18.9375 -21.890625 15.453125 -23.640625 13.03125 -24.671875 L 11.515625 -22.78125 C 13.953125 -21.765625 16.890625 -20.21875 18.296875 -19.109375 C 17.828125 -18.6875 16.921875 -18.046875 16.09375 -17.5 Z M 10.375 0.28125 C 11.78125 0.546875 13.53125 0.765625 15.515625 0.765625 C 17.828125 0.765625 20.984375 -0.125 20.984375 -4 C 20.984375 -6.875 18.90625 -9.703125 15.9375 -12.796875 C 15.203125 -13.59375 14.40625 -14.46875 13.625 -15.234375 L 11.6875 -13.59375 C 12.578125 -12.828125 13.53125 -11.90625 14.234375 -11.203125 C 15.96875 -9.34375 18.296875 -6.4375 18.296875 -4.28125 C 18.296875 -2.234375 16.578125 -1.65625 15.140625 -1.65625 C 13.15625 -1.65625 11.609375 -1.921875 10.015625 -2.40625 Z M 30.625 -2.46875 C 29.625 -5.25 27.265625 -9.796875 25.09375 -12.359375 L 22.9375 -11.171875 C 25.125 -8.703125 27.359375 -4.1875 28.25 -1.1875 Z M 11.109375 -7.328125 L 9.59375 -9.25 C 7.78125 -7.296875 4.09375 -4.453125 1.46875 -3.046875 L 3.015625 -0.921875 C 6.078125 -2.75 9.25 -5.40625 11.109375 -7.328125 Z M 11.109375 -7.328125 "/></g></g></g><g fill="#e18256" fill-opacity="1"><g transform="translate(103.780997, 86.859592)"><g><path d="M 8.09375 -25.25 C 8.0625 -24.484375 7.96875 -23.515625 7.84375 -22.53125 C 7.453125 -19.96875 6.875 -15.296875 6.875 -12.28125 C 6.875 -10.234375 7.046875 -8.453125 7.203125 -7.265625 L 9.703125 -7.453125 C 9.46875 -9.03125 9.46875 -10.109375 9.625 -11.328125 C 10.015625 -15.484375 13.65625 -21.21875 17.59375 -21.21875 C 20.953125 -21.21875 22.625 -17.625 22.625 -12.640625 C 22.625 -4.671875 17.25 -1.921875 10.375 -0.859375 L 11.875 1.4375 C 19.75 0 25.28125 -3.875 25.28125 -12.671875 C 25.28125 -19.328125 22.234375 -23.546875 18.015625 -23.546875 C 14.015625 -23.546875 10.6875 -19.609375 9.4375 -16.359375 C 9.625 -18.5625 10.234375 -22.8125 10.90625 -25.15625 Z M 8.09375 -25.25 "/></g></g></g><g fill="#e18256" fill-opacity="1"><g transform="translate(135.773136, 86.859592)"><g><path d="M 31.171875 -22.71875 C 30.5625 -23.90625 29.3125 -25.921875 28.484375 -27.078125 L 26.78125 -26.375 C 27.6875 -25.15625 28.734375 -23.328125 29.4375 -21.953125 Z M 27.578125 -21.40625 C 26.90625 -22.6875 25.734375 -24.671875 24.921875 -25.796875 L 23.234375 -25.09375 C 24.09375 -23.875 25.1875 -21.921875 25.828125 -20.640625 Z M 10.625 -25.0625 C 10.65625 -22.90625 10.265625 -20.453125 9.828125 -18.171875 C 7.90625 -18.015625 6.078125 -17.859375 5.03125 -17.828125 C 4 -17.796875 3.203125 -17.796875 2.203125 -17.828125 L 2.46875 -15.046875 C 3.265625 -15.203125 4.546875 -15.328125 5.3125 -15.421875 C 6.140625 -15.515625 7.640625 -15.6875 9.3125 -15.84375 C 8.21875 -11.609375 5.890625 -4.484375 2.65625 -0.15625 L 5.25 0.890625 C 8.578125 -4.421875 10.75 -11.546875 11.90625 -16.09375 C 13.28125 -16.21875 14.53125 -16.3125 15.296875 -16.3125 C 17.34375 -16.3125 18.65625 -15.8125 18.65625 -12.921875 C 18.65625 -9.5 18.171875 -5.375 17.15625 -3.265625 C 16.484375 -1.890625 15.546875 -1.625 14.40625 -1.625 C 13.5 -1.625 11.84375 -1.890625 10.5 -2.34375 L 10.90625 0.390625 C 11.9375 0.609375 13.4375 0.828125 14.65625 0.828125 C 16.703125 0.828125 18.265625 0.3125 19.296875 -1.796875 C 20.609375 -4.453125 21.125 -9.4375 21.125 -13.21875 C 21.125 -17.5 18.8125 -18.625 15.96875 -18.625 C 15.203125 -18.625 13.890625 -18.53125 12.421875 -18.40625 C 12.765625 -20.09375 13.0625 -21.953125 13.25 -22.875 C 13.34375 -23.515625 13.5 -24.15625 13.625 -24.765625 Z M 22.171875 -20.0625 C 24.390625 -17.46875 26.875 -11.9375 27.84375 -8.671875 L 30.296875 -9.890625 C 29.25 -12.828125 26.5 -18.59375 24.515625 -21.15625 Z M 22.171875 -20.0625 "/></g></g></g><g fill="#e18256" fill-opacity="1"><g transform="translate(167.765276, 86.859592)"><g><path d="M 29.703125 -16.765625 C 28.1875 -17.921875 24.578125 -19.96875 22.265625 -20.984375 L 21.03125 -19.015625 C 23.140625 -18.046875 26.5625 -16.09375 28.25 -14.65625 Z M 18.171875 -21.5625 C 16.578125 -21.0625 14.90625 -20.671875 13.25 -20.421875 C 13.765625 -22.234375 14.171875 -24.15625 14.5 -25.3125 L 11.640625 -25.5625 C 11.578125 -23.875 11.140625 -21.859375 10.65625 -20.09375 C 9.4375 -20 8.25 -19.9375 7.140625 -19.9375 C 5.765625 -19.9375 4.421875 -20 3.234375 -20.15625 L 3.421875 -17.765625 C 4.609375 -17.703125 5.921875 -17.65625 7.109375 -17.65625 C 8.03125 -17.65625 8.953125 -17.703125 9.890625 -17.765625 C 8.453125 -14.046875 5.765625 -8.984375 3.109375 -5.921875 L 5.59375 -4.640625 C 8.125 -8.0625 10.9375 -13.5625 12.515625 -18.046875 C 14.59375 -18.296875 16.578125 -18.71875 18.234375 -19.203125 Z M 19.84375 -3.875 C 19.84375 -2.296875 18.96875 -0.859375 16.390625 -0.859375 C 13.921875 -0.859375 12.734375 -1.859375 12.734375 -3.328125 C 12.734375 -4.765625 14.265625 -5.828125 16.609375 -5.828125 C 17.734375 -5.828125 18.8125 -5.65625 19.8125 -5.375 C 19.84375 -4.796875 19.84375 -4.28125 19.84375 -3.875 Z M 19.390625 -15.515625 C 19.453125 -13.3125 19.609375 -10.203125 19.71875 -7.609375 C 18.78125 -7.8125 17.765625 -7.90625 16.703125 -7.90625 C 13.125 -7.90625 10.375 -6.015625 10.375 -3.109375 C 10.375 0.03125 13.21875 1.46875 16.703125 1.46875 C 20.609375 1.46875 22.265625 -0.609375 22.265625 -3.140625 C 22.265625 -3.484375 22.265625 -3.9375 22.234375 -4.421875 C 24.28125 -3.421875 25.984375 -2.015625 27.328125 -0.796875 L 28.703125 -2.96875 C 27.078125 -4.390625 24.859375 -5.953125 22.140625 -6.9375 C 22.078125 -8.859375 21.953125 -10.9375 21.921875 -12.09375 C 21.890625 -13.28125 21.859375 -14.203125 21.953125 -15.515625 Z M 19.390625 -15.515625 "/></g></g></g><g fill="#e18256" fill-opacity="1"><g transform="translate(199.757416, 86.859592)"><g><path d="M 14.140625 -17.40625 C 14.234375 -16.578125 14.265625 -15.875 14.265625 -15.109375 C 14.265625 -9.765625 13.5625 -5.1875 8.609375 -2.140625 C 7.71875 -1.53125 6.625 -1.03125 5.765625 -0.734375 L 8.09375 1.1875 C 16.25 -2.875 17.03125 -8.734375 17.03125 -17.40625 Z M 28.21875 -23.140625 C 27.75 -23.046875 26.59375 -22.9375 25.984375 -22.9375 L 7.609375 -22.9375 C 6.4375 -22.9375 5.09375 -23.078125 3.96875 -23.203125 L 3.96875 -20.3125 C 5.25 -20.453125 6.4375 -20.515625 7.609375 -20.515625 L 25.828125 -20.515625 C 24.796875 -18.53125 21.796875 -15.078125 18.84375 -13.34375 L 20.953125 -11.640625 C 24.609375 -14.171875 27.640625 -18.296875 28.921875 -20.484375 C 29.15625 -20.828125 29.5625 -21.3125 29.796875 -21.625 Z M 28.21875 -23.140625 "/></g></g></g><g fill="#e18256" fill-opacity="1"><g transform="translate(231.749555, 86.859592)"><g><path d="M 27.875 -20.859375 C 26.6875 -20.859375 25.765625 -21.828125 25.765625 -22.96875 C 25.765625 -24.125 26.6875 -25.125 27.875 -25.125 C 29.03125 -25.125 29.984375 -24.125 29.984375 -22.96875 C 29.984375 -21.828125 29.03125 -20.859375 27.875 -20.859375 Z M 7.359375 -21.921875 C 6.296875 -21.921875 5.03125 -22.015625 4.15625 -22.109375 L 4.15625 -19.296875 C 4.953125 -19.328125 6.078125 -19.390625 7.328125 -19.390625 L 23.71875 -19.390625 C 23.265625 -16.3125 21.796875 -11.875 19.515625 -8.953125 C 16.828125 -5.53125 13.25 -2.8125 7.046875 -1.28125 L 9.21875 1.125 C 15.078125 -0.703125 18.875 -3.6875 21.828125 -7.421875 C 24.359375 -10.71875 25.890625 -15.875 26.59375 -19.234375 L 26.65625 -19.578125 C 27.046875 -19.453125 27.453125 -19.390625 27.875 -19.390625 C 29.859375 -19.390625 31.453125 -20.984375 31.453125 -22.96875 C 31.453125 -24.953125 29.859375 -26.59375 27.875 -26.59375 C 25.890625 -26.59375 24.28125 -24.953125 24.28125 -22.96875 C 24.28125 -22.625 24.359375 -22.265625 24.453125 -21.953125 C 24.0625 -21.921875 23.71875 -21.921875 23.390625 -21.921875 Z M 7.359375 -21.921875 "/></g></g></g><g fill="#e18256" fill-opacity="1"><g transform="translate(263.741695, 86.859592)"><g><path d="M 7.078125 -24.03125 C 7.140625 -23.421875 7.203125 -22.296875 7.203125 -21.734375 L 7.203125 -11.078125 C 7.203125 -10.109375 7.109375 -9.09375 7.078125 -8.609375 L 10.015625 -8.609375 C 9.953125 -9.1875 9.921875 -10.234375 9.921875 -11.046875 L 9.921875 -21.734375 C 9.921875 -22.5 9.953125 -23.421875 10.015625 -24.03125 Z M 21.890625 -24.25 C 21.953125 -23.484375 22.046875 -22.5625 22.046875 -21.5 L 22.046875 -16.453125 C 22.046875 -10.40625 21.65625 -7.8125 19.359375 -5.15625 C 17.375 -2.90625 14.625 -1.625 11.6875 -0.890625 L 13.765625 1.3125 C 16.09375 0.515625 19.296875 -0.859375 21.375 -3.359375 C 23.6875 -6.109375 24.703125 -8.640625 24.703125 -16.3125 L 24.703125 -21.5 C 24.703125 -22.5625 24.765625 -23.484375 24.828125 -24.25 Z M 21.890625 -24.25 "/></g></g></g></svg>