<svg xmlns="http://www.w3.org/2000/svg" xmlns:xlink="http://www.w3.org/1999/xlink" width="500" zoomAndPan="magnify" viewBox="0 0 375 374.999991" height="500" preserveAspectRatio="xMidYMid meet" version="1.0"><defs><g/><clipPath id="9693b01c1e"><path d="M 92.429688 43 L 282.394531 43 L 282.394531 331 L 92.429688 331 Z M 92.429688 43 " clip-rule="nonzero"/></clipPath></defs><g clip-path="url(#9693b01c1e)"><path fill="#95614c" d="M 281.535156 119.332031 C 281.449219 118.984375 281.21875 118.671875 280.769531 118.621094 C 279.925781 118.523438 279.082031 118.421875 278.234375 118.324219 C 278.035156 115.265625 277.835938 112.207031 277.621094 109.148438 C 278.070312 108.765625 278.101562 107.941406 277.40625 107.757812 C 277.140625 107.359375 276.578125 107.277344 276.210938 107.507812 C 275.433594 107.359375 274.636719 107.210938 273.859375 107.0625 C 273.925781 105.492188 273.992188 103.9375 274.058594 102.367188 C 274.058594 102.332031 274.058594 102.316406 274.058594 102.285156 C 274.074219 101.855469 273.660156 101.441406 273.230469 101.457031 C 273.0625 101.457031 272.914062 101.523438 272.78125 101.621094 C 260.214844 99.355469 247.585938 97.554688 234.886719 96.214844 C 234.921875 85.765625 234.953125 75.3125 234.988281 64.863281 C 235.882812 64.53125 235.46875 63.058594 234.457031 63.308594 L 226.332031 65.339844 C 226.332031 64.117188 226.316406 62.894531 226.25 61.6875 C 226.203125 60.546875 225.835938 59.253906 224.609375 58.910156 C 224.113281 58.777344 223.765625 59.074219 223.632812 59.453125 C 221.277344 60.015625 218.90625 60.59375 216.554688 61.191406 C 216.289062 59.75 216.039062 58.3125 215.773438 56.859375 C 215.707031 56.476562 215.261719 56.230469 214.878906 56.277344 C 214.761719 56.261719 214.648438 56.277344 214.515625 56.3125 C 213.304688 56.710938 212.09375 57.105469 210.882812 57.503906 C 210.734375 55.847656 210.601562 54.195312 210.453125 52.542969 C 210.421875 52.113281 210.121094 51.765625 209.675781 51.730469 C 209.476562 51.351562 209.011719 51.070312 208.515625 51.285156 C 204.15625 53.203125 199.761719 55.070312 195.367188 56.941406 C 195.054688 54.292969 194.722656 51.648438 194.40625 49.019531 C 194.257812 47.730469 194.125 46.421875 193.925781 45.148438 C 193.792969 44.242188 193.414062 43.347656 192.453125 43.097656 C 192.101562 43.015625 191.820312 43.148438 191.640625 43.347656 C 191.40625 43.214844 191.125 43.164062 190.828125 43.3125 C 166.660156 55.898438 142.472656 68.484375 118.304688 81.050781 C 111.476562 84.605469 104.628906 88.160156 97.800781 91.734375 C 97.648438 91.816406 97.566406 91.914062 97.5 92.015625 C 96.390625 92 95.246094 92.230469 94.535156 93.105469 C 93.636719 94.230469 93.988281 95.472656 94.765625 96.445312 C 94.367188 123.535156 93.953125 150.621094 93.554688 177.707031 C 93.523438 179.425781 93.507812 181.164062 93.488281 182.882812 C 93.472656 184.933594 93.441406 186.96875 93.421875 189.019531 C 93.40625 191.332031 93.390625 193.664062 93.355469 195.980469 C 93.339844 198.527344 93.324219 201.074219 93.308594 203.621094 C 93.289062 206.347656 93.273438 209.078125 93.257812 211.804688 C 93.242188 214.667969 93.222656 217.527344 93.207031 220.40625 C 93.207031 223.363281 93.175781 226.308594 93.15625 229.269531 C 93.15625 232.261719 93.125 235.253906 93.125 238.25 C 93.125 241.242188 93.109375 244.234375 93.089844 247.210938 C 93.089844 250.15625 93.074219 253.082031 93.058594 256.023438 C 93.058594 258.871094 93.042969 261.695312 93.023438 264.542969 C 93.023438 267.238281 93.007812 269.933594 92.992188 272.628906 C 92.992188 275.125 92.992188 277.636719 92.976562 280.136719 C 92.976562 282.402344 92.976562 284.667969 92.957031 286.933594 C 92.957031 288.917969 92.957031 290.902344 92.957031 292.867188 C 92.957031 294.523438 92.957031 296.175781 92.957031 297.8125 C 92.957031 299.085938 92.957031 300.359375 92.957031 301.632812 C 92.957031 302.195312 92.445312 307.769531 97.367188 310.332031 C 98.859375 311.109375 100.386719 311.820312 102.027344 312.25 C 102.855469 312.464844 103.683594 312.644531 104.53125 312.796875 C 104.878906 312.863281 105.257812 312.878906 105.574219 313.058594 C 105.9375 313.273438 106.320312 313.488281 106.734375 313.605469 C 107.246094 313.753906 107.84375 313.753906 108.390625 313.820312 C 109.570312 313.953125 110.730469 314.085938 111.90625 314.21875 C 114.242188 314.480469 116.597656 314.746094 118.933594 315.011719 C 123.625 315.539062 128.316406 316.070312 132.992188 316.582031 C 137.683594 317.09375 142.375 317.605469 147.066406 318.121094 C 151.757812 318.632812 156.445312 319.128906 161.136719 319.625 C 164.867188 320.023438 168.597656 320.402344 172.328125 320.800781 C 194.242188 323.066406 216.171875 325.214844 238.121094 327.230469 C 249.90625 328.324219 261.675781 329.363281 273.460938 330.375 C 273.644531 331.050781 274.636719 331.085938 274.96875 330.507812 C 275.035156 330.507812 275.085938 330.507812 275.152344 330.523438 C 276.210938 330.605469 276.210938 328.953125 275.117188 328.867188 C 276.046875 301.914062 276.976562 274.941406 277.902344 247.988281 C 278.847656 220.753906 279.777344 193.515625 280.722656 166.28125 C 281.253906 150.917969 281.78125 135.554688 282.3125 120.175781 C 282.328125 119.664062 281.949219 119.398438 281.550781 119.382812 Z M 275.964844 109.128906 C 276.164062 112.125 276.363281 115.117188 276.5625 118.109375 C 255.375 115.578125 234.207031 113.050781 213.023438 110.519531 C 190.445312 107.824219 167.851562 105.128906 145.273438 102.433594 C 135.875 101.308594 126.476562 100.183594 117.078125 99.074219 C 118.652344 98.878906 120.226562 98.679688 121.800781 98.496094 C 140.070312 97.421875 158.371094 97.140625 176.671875 97.71875 C 198.238281 98.398438 219.769531 100.234375 241.136719 103.210938 C 252.804688 104.847656 264.410156 106.816406 275.964844 109.128906 Z M 238.035156 98.167969 C 249.542969 99.441406 260.980469 101.125 272.367188 103.175781 L 272.21875 106.730469 C 252.722656 102.980469 233.0625 100.167969 213.304688 98.332031 C 193.378906 96.496094 173.355469 95.652344 153.332031 95.785156 C 160.757812 95.371094 168.183594 95.125 175.625 95.039062 C 196.464844 94.808594 217.332031 95.851562 238.035156 98.148438 Z M 233.328125 65.257812 C 233.296875 75.511719 233.261719 85.746094 233.230469 96 C 225.769531 95.238281 218.277344 94.644531 210.785156 94.214844 C 189.765625 93.007812 168.679688 93.089844 147.695312 94.480469 C 139.140625 95.039062 130.621094 95.835938 122.101562 96.828125 C 119.664062 97.109375 117.175781 97.125 114.742188 97.304688 C 112.867188 97.4375 108.574219 98.464844 107.199219 96.828125 C 108.160156 96.464844 109.171875 96.214844 110.148438 95.917969 C 110.296875 95.984375 110.480469 96.03125 110.695312 95.984375 C 126.859375 91.933594 143.019531 87.898438 159.183594 83.84375 C 175.34375 79.792969 191.507812 75.757812 207.667969 71.707031 C 216.222656 69.558594 224.792969 67.425781 233.347656 65.273438 Z M 224.492188 60.910156 C 224.492188 60.910156 224.492188 60.960938 224.511719 60.976562 C 224.527344 61.074219 224.558594 61.15625 224.578125 61.257812 C 224.578125 61.273438 224.578125 61.390625 224.59375 61.40625 C 224.609375 61.671875 224.609375 61.917969 224.625 62.183594 C 224.644531 63.355469 224.675781 64.546875 224.691406 65.722656 L 186.003906 75.410156 C 169.839844 79.464844 153.679688 83.5 137.515625 87.550781 C 130.457031 89.320312 123.378906 91.089844 116.316406 92.859375 C 129.59375 88.179688 142.9375 83.730469 156.382812 79.578125 C 170.753906 75.132812 185.222656 70.980469 199.777344 67.144531 C 207.984375 64.976562 216.222656 62.910156 224.492188 60.925781 Z M 214.347656 58.066406 C 214.546875 59.222656 214.761719 60.378906 214.960938 61.539062 C 203.308594 64.433594 191.707031 67.507812 180.167969 70.78125 C 169.839844 73.707031 159.546875 76.816406 149.320312 80.042969 C 150.761719 79.53125 152.203125 79 153.644531 78.503906 C 166.609375 73.941406 179.621094 69.492188 192.648438 65.160156 C 199.859375 62.761719 207.089844 60.398438 214.332031 58.066406 Z M 208.84375 52.871094 L 209.292969 57.964844 C 197.90625 61.652344 186.535156 65.425781 175.195312 69.292969 C 162.183594 73.726562 149.21875 78.273438 136.289062 82.9375 C 130.71875 84.9375 125.152344 86.972656 119.582031 89.023438 C 116.148438 90.296875 112.769531 91.699219 109.371094 93.089844 C 106.699219 94.179688 102.90625 96.578125 99.988281 94.957031 L 103.152344 94.046875 C 103.285156 94.082031 103.433594 94.097656 103.601562 94.046875 C 117.609375 89.21875 131.53125 84.175781 145.375 78.917969 C 159.148438 73.675781 172.839844 68.203125 186.449219 62.511719 C 193.941406 59.371094 201.417969 56.179688 208.84375 52.90625 Z M 171.183594 55.335938 C 178.011719 51.78125 184.859375 48.226562 191.6875 44.652344 C 191.753906 44.621094 191.804688 44.570312 191.855469 44.523438 C 191.90625 44.554688 191.953125 44.585938 192.019531 44.605469 C 192.484375 44.71875 192.453125 46.488281 192.5 46.851562 C 192.632812 47.976562 192.78125 49.117188 192.914062 50.242188 C 193.199219 52.507812 193.460938 54.773438 193.746094 57.039062 C 193.761719 57.222656 193.84375 57.371094 193.941406 57.484375 C 185.257812 61.191406 176.539062 64.828125 167.769531 68.351562 C 154.144531 73.824219 140.449219 79.066406 126.660156 84.09375 C 119.066406 86.855469 111.457031 89.550781 103.816406 92.195312 C 103.71875 92.195312 103.601562 92.195312 103.484375 92.214844 L 99.6875 93.304688 C 99.804688 93.054688 99.738281 92.792969 99.605469 92.578125 C 123.460938 80.15625 147.3125 67.753906 171.167969 55.335938 Z M 95.777344 94.148438 C 96.125 93.570312 97.003906 93.535156 97.75 93.585938 C 97.648438 94.132812 97.734375 94.710938 98 95.222656 C 98.496094 96.164062 99.574219 96.695312 100.585938 96.859375 C 101.710938 97.042969 102.871094 96.894531 103.980469 97.140625 C 104.597656 97.273438 105.160156 97.519531 105.707031 97.835938 C 103.003906 98.066406 100.234375 97.652344 97.765625 96.527344 C 97.453125 96.378906 96.902344 96.097656 96.441406 95.753906 C 96.441406 95.667969 96.441406 95.585938 96.441406 95.503906 C 96.441406 94.992188 96.058594 94.726562 95.660156 94.710938 C 95.628906 94.527344 95.644531 94.328125 95.761719 94.132812 Z M 106.203125 311.390625 C 101.761719 310.597656 96.074219 309.257812 94.601562 304.558594 C 94.929688 277.9375 95.363281 168.84375 95.761719 141.609375 C 95.976562 126.972656 96.191406 112.339844 96.421875 97.703125 C 97.867188 98.546875 99.640625 99.042969 101.230469 99.308594 C 102.789062 99.570312 104.347656 99.636719 105.90625 99.507812 C 105.90625 99.570312 105.855469 99.605469 105.855469 99.6875 C 106.917969 127.355469 107.597656 155.035156 107.859375 182.734375 C 108.125 210.285156 107.992188 237.835938 107.464844 265.367188 C 107.164062 280.714844 106.75 296.042969 106.203125 311.390625 Z M 277.804688 202.246094 C 276.859375 229.484375 275.929688 256.71875 274.984375 283.957031 C 274.472656 298.855469 273.957031 313.753906 273.445312 328.652344 C 252.042969 326.816406 230.660156 324.867188 209.292969 322.800781 C 187.363281 320.667969 165.449219 318.417969 143.535156 316.054688 C 131.617188 314.761719 119.714844 313.421875 107.8125 312.066406 C 107.8125 312.035156 107.828125 312.019531 107.828125 311.96875 C 108.804688 284.300781 109.386719 256.605469 109.570312 228.921875 C 109.75 201.371094 109.535156 173.820312 108.921875 146.289062 C 108.574219 130.742188 108.109375 115.214844 107.511719 99.6875 C 107.511719 99.65625 107.496094 99.621094 107.496094 99.589844 C 129.941406 102.265625 152.402344 104.945312 174.847656 107.625 C 197.425781 110.320312 220.019531 113.015625 242.59375 115.710938 C 255.277344 117.234375 267.957031 118.738281 280.636719 120.257812 C 279.695312 147.59375 278.75 174.929688 277.804688 202.265625 Z M 277.804688 202.246094 " fill-opacity="1" fill-rule="nonzero"/></g><path fill="#f4e6d4" d="M 159.183594 83.828125 C 143.019531 87.878906 126.859375 91.914062 110.695312 95.96875 C 110.480469 96.015625 110.316406 95.96875 110.148438 95.902344 C 109.171875 96.199219 108.144531 96.445312 107.199219 96.808594 C 108.574219 98.449219 112.882812 97.421875 114.742188 97.289062 C 117.175781 97.125 119.664062 97.109375 122.101562 96.808594 C 130.605469 95.816406 139.140625 95.023438 147.695312 94.460938 C 168.695312 93.089844 189.78125 92.992188 210.785156 94.199219 C 218.277344 94.628906 225.753906 95.222656 233.230469 95.984375 C 233.261719 85.730469 233.296875 75.496094 233.328125 65.242188 C 224.777344 67.390625 216.207031 69.523438 207.652344 71.675781 C 191.488281 75.726562 175.328125 79.761719 159.164062 83.8125 Z M 159.183594 83.828125 " fill-opacity="1" fill-rule="nonzero"/><path fill="#f4e6d4" d="M 153.644531 78.503906 C 152.203125 79.015625 150.761719 79.53125 149.320312 80.042969 C 159.5625 76.800781 169.839844 73.707031 180.167969 70.78125 C 191.707031 67.507812 203.308594 64.433594 214.960938 61.539062 C 214.761719 60.378906 214.546875 59.222656 214.347656 58.066406 C 207.105469 60.398438 199.878906 62.761719 192.667969 65.160156 C 179.621094 69.492188 166.625 73.941406 153.664062 78.503906 Z M 153.644531 78.503906 " fill-opacity="1" fill-rule="nonzero"/><path fill="#f4e6d4" d="M 156.378906 79.5625 C 142.9375 83.730469 129.578125 88.160156 116.316406 92.839844 C 123.375 91.070312 130.457031 89.304688 137.515625 87.535156 C 153.679688 83.480469 169.839844 79.445312 186.003906 75.394531 L 224.691406 65.703125 C 224.675781 64.53125 224.644531 63.339844 224.625 62.167969 C 224.625 61.902344 224.625 61.652344 224.59375 61.390625 C 224.59375 61.371094 224.59375 61.273438 224.578125 61.238281 C 224.558594 61.140625 224.542969 61.042969 224.511719 60.960938 C 224.511719 60.941406 224.511719 60.910156 224.492188 60.894531 C 216.238281 62.859375 208 64.945312 199.777344 67.109375 C 185.222656 70.945312 170.753906 75.097656 156.378906 79.546875 Z M 156.378906 79.5625 " fill-opacity="1" fill-rule="nonzero"/><path fill="#f4e6d4" d="M 176.652344 97.71875 C 158.371094 97.140625 140.054688 97.421875 121.785156 98.496094 C 120.210938 98.679688 118.636719 98.878906 117.0625 99.074219 C 126.460938 100.199219 135.859375 101.324219 145.257812 102.433594 C 167.835938 105.128906 190.429688 107.824219 213.007812 110.519531 C 234.191406 113.050781 255.359375 115.578125 276.542969 118.109375 C 276.34375 115.117188 276.144531 112.125 275.949219 109.128906 C 264.394531 106.832031 252.789062 104.847656 241.121094 103.210938 C 219.753906 100.21875 198.21875 98.398438 176.652344 97.71875 Z M 176.652344 97.71875 " fill-opacity="1" fill-rule="nonzero"/><path fill="#f4e6d4" d="M 175.625 95.058594 C 168.199219 95.140625 160.757812 95.386719 153.332031 95.800781 C 173.355469 95.667969 193.363281 96.511719 213.304688 98.347656 C 233.0625 100.167969 252.742188 102.996094 272.21875 106.75 L 272.367188 103.195312 C 260.980469 101.144531 249.542969 99.457031 238.035156 98.183594 C 217.316406 95.882812 196.464844 94.84375 175.625 95.074219 Z M 175.625 95.058594 " fill-opacity="1" fill-rule="nonzero"/><path fill="#cb9782" d="M 107.84375 182.734375 C 107.578125 155.050781 106.917969 127.371094 105.839844 99.6875 C 105.839844 99.605469 105.871094 99.570312 105.890625 99.507812 C 104.332031 99.636719 102.773438 99.570312 101.214844 99.308594 C 99.621094 99.027344 97.847656 98.53125 96.40625 97.703125 C 96.191406 112.339844 95.976562 126.972656 95.742188 141.609375 C 95.328125 168.84375 94.898438 277.9375 94.582031 304.558594 C 96.058594 309.257812 101.746094 310.597656 106.1875 311.390625 C 106.734375 296.058594 107.148438 280.714844 107.445312 265.367188 C 107.976562 237.816406 108.109375 210.269531 107.84375 182.734375 Z M 107.84375 182.734375 " fill-opacity="1" fill-rule="nonzero"/><path fill="#f4e6d4" d="M 96.457031 95.519531 C 96.457031 95.519531 96.457031 95.6875 96.457031 95.769531 C 96.921875 96.117188 97.46875 96.398438 97.78125 96.546875 C 100.253906 97.671875 103.019531 98.082031 105.722656 97.851562 C 105.175781 97.554688 104.613281 97.304688 104 97.15625 C 102.871094 96.910156 101.726562 97.058594 100.601562 96.875 C 99.589844 96.710938 98.511719 96.183594 98.015625 95.238281 C 97.75 94.726562 97.667969 94.148438 97.765625 93.601562 C 97.003906 93.550781 96.125 93.601562 95.792969 94.164062 C 95.675781 94.363281 95.660156 94.5625 95.695312 94.742188 C 96.09375 94.761719 96.472656 95.023438 96.472656 95.535156 Z M 96.457031 95.519531 " fill-opacity="1" fill-rule="nonzero"/><path fill="#cb9782" d="M 242.578125 115.710938 C 220 113.015625 197.40625 110.320312 174.832031 107.625 C 152.386719 104.945312 129.925781 102.265625 107.480469 99.589844 C 107.480469 99.621094 107.496094 99.65625 107.496094 99.6875 C 108.09375 115.214844 108.574219 130.742188 108.90625 146.289062 C 109.519531 173.820312 109.734375 201.386719 109.550781 228.921875 C 109.371094 256.605469 108.789062 284.300781 107.8125 311.96875 C 107.8125 312 107.796875 312.035156 107.796875 312.066406 C 119.695312 313.421875 131.597656 314.761719 143.515625 316.054688 C 165.433594 318.433594 187.347656 320.683594 209.277344 322.800781 C 230.644531 324.867188 252.027344 326.816406 273.429688 328.652344 C 273.941406 313.753906 274.457031 298.855469 274.96875 283.957031 C 275.914062 256.71875 276.84375 229.484375 277.789062 202.246094 C 278.730469 174.914062 279.675781 147.578125 280.621094 120.242188 C 267.941406 118.722656 255.261719 117.214844 242.578125 115.695312 Z M 242.578125 115.710938 " fill-opacity="1" fill-rule="nonzero"/><path fill="#f4e6d4" d="M 99.707031 93.304688 L 103.5 92.214844 C 103.617188 92.179688 103.734375 92.179688 103.832031 92.195312 C 111.476562 89.566406 119.082031 86.871094 126.675781 84.09375 C 140.46875 79.066406 154.175781 73.808594 167.785156 68.351562 C 176.554688 64.828125 185.273438 61.191406 193.960938 57.484375 C 193.859375 57.371094 193.777344 57.222656 193.761719 57.039062 C 193.480469 54.773438 193.214844 52.507812 192.933594 50.242188 C 192.800781 49.117188 192.648438 47.976562 192.519531 46.851562 C 192.46875 46.488281 192.5 44.71875 192.035156 44.605469 C 191.972656 44.585938 191.921875 44.554688 191.871094 44.523438 C 191.820312 44.570312 191.773438 44.621094 191.707031 44.652344 C 184.875 48.210938 178.03125 51.765625 171.199219 55.335938 C 147.347656 67.753906 123.492188 80.15625 99.640625 92.578125 C 99.773438 92.792969 99.839844 93.054688 99.722656 93.304688 Z M 99.707031 93.304688 " fill-opacity="1" fill-rule="nonzero"/><path fill="#f4e6d4" d="M 145.375 78.882812 C 131.53125 84.160156 117.609375 89.203125 103.601562 94.015625 C 103.433594 94.082031 103.285156 94.066406 103.152344 94.015625 L 99.988281 94.925781 C 102.90625 96.546875 106.699219 94.148438 109.371094 93.054688 C 112.75 91.667969 116.132812 90.261719 119.582031 88.988281 C 125.132812 86.9375 130.703125 84.902344 136.289062 82.902344 C 149.21875 78.238281 162.183594 73.691406 175.195312 69.261719 C 186.535156 65.390625 197.90625 61.636719 209.292969 57.933594 L 208.84375 52.839844 C 201.402344 56.113281 193.941406 59.304688 186.449219 62.449219 C 172.859375 68.136719 159.164062 73.609375 145.375 78.851562 Z M 145.375 78.882812 " fill-opacity="1" fill-rule="nonzero"/><path fill="#f4e6d4" d="M 235.417969 176.699219 C 235.402344 176.46875 235.367188 176.234375 235.335938 176.003906 C 232.433594 175.691406 230.0625 174.433594 228.539062 171.855469 C 226.730469 168.8125 226.863281 164.925781 228.671875 161.914062 C 229.003906 161.371094 228.570312 160.675781 227.957031 160.675781 C 208.382812 160.3125 188.835938 158.65625 169.476562 155.648438 C 163.988281 154.789062 158.519531 153.828125 153.050781 152.769531 C 152.667969 152.6875 152.351562 152.871094 152.1875 153.132812 C 151.839844 153.199219 151.539062 153.433594 151.589844 153.894531 C 152.003906 158.675781 148.125 163.289062 143.269531 163.550781 C 142.820312 163.570312 142.441406 163.917969 142.441406 164.378906 C 142.339844 184.539062 142.257812 204.679688 142.15625 224.835938 C 142.125 230.542969 142.109375 236.246094 142.074219 241.96875 C 142.074219 242.414062 142.457031 242.796875 142.902344 242.796875 C 147.910156 242.777344 151.855469 248.285156 150.28125 253 C 149.949219 254.007812 151.539062 254.4375 151.871094 253.445312 C 153.695312 247.972656 149.367188 241.738281 143.734375 241.191406 C 143.832031 221.296875 143.914062 201.40625 144.015625 181.511719 C 144.046875 176.054688 144.066406 170.582031 144.097656 165.125 C 149.21875 164.414062 153.378906 159.699219 153.265625 154.488281 C 172.425781 158.179688 191.820312 160.609375 211.300781 161.714844 C 216.40625 161.996094 221.511719 162.195312 226.632812 162.296875 C 225.15625 165.601562 225.257812 169.539062 227.113281 172.695312 C 228.570312 175.160156 230.957031 176.914062 233.644531 177.742188 C 232.367188 197.617188 231.109375 217.496094 229.832031 237.355469 C 229.484375 242.714844 229.152344 248.054688 228.804688 253.414062 C 225.671875 252.1875 222.007812 252.617188 219.371094 254.785156 C 216.886719 256.820312 215.726562 260.125 216.121094 263.25 C 199.230469 260.917969 182.339844 258.589844 165.449219 256.273438 L 150.726562 254.238281 C 149.683594 254.089844 149.238281 255.695312 150.28125 255.828125 C 167.585938 258.207031 184.890625 260.605469 202.199219 262.988281 L 216.917969 265.019531 C 217.53125 265.105469 218.113281 264.671875 217.929688 263.996094 C 217.183594 261.183594 218.078125 258.042969 220.300781 256.140625 C 222.605469 254.15625 226.050781 253.824219 228.753906 255.183594 C 229.019531 255.875 230.296875 255.761719 230.363281 254.835938 C 231.671875 234.214844 232.996094 213.609375 234.308594 192.988281 C 234.488281 190.191406 234.671875 187.398438 234.835938 184.601562 C 235.003906 182.023438 235.667969 179.328125 235.402344 176.714844 Z M 235.417969 176.699219 " fill-opacity="1" fill-rule="nonzero"/><g fill="#444243" fill-opacity="1"><g transform="translate(139.608919, 237.589093)"><g><path d="M 12.515625 -16.828125 C 11.191406 -16.378906 10.078125 -16.425781 9.171875 -16.96875 C 8.265625 -17.507812 7.644531 -18.296875 7.3125 -19.328125 C 6.988281 -20.359375 7.0625 -21.378906 7.53125 -22.390625 C 8.007812 -23.398438 9.03125 -24.15625 10.59375 -24.65625 C 11.664062 -24.988281 12.816406 -25.375 14.046875 -25.8125 C 15.285156 -26.257812 16.53125 -26.710938 17.78125 -27.171875 C 17.84375 -30.203125 17.921875 -33.253906 18.015625 -36.328125 C 18.109375 -39.398438 18.191406 -42.519531 18.265625 -45.6875 C 17.265625 -45.664062 16.234375 -45.628906 15.171875 -45.578125 C 14.117188 -45.523438 13.0625 -45.460938 12 -45.390625 C 10.707031 -45.316406 9.703125 -45.707031 8.984375 -46.5625 C 8.273438 -47.425781 7.941406 -48.390625 7.984375 -49.453125 C 8.023438 -50.316406 8.382812 -51.140625 9.0625 -51.921875 C 9.75 -52.703125 10.773438 -53.128906 12.140625 -53.203125 C 13.191406 -53.285156 14.25 -53.351562 15.3125 -53.40625 C 16.375 -53.457031 17.429688 -53.492188 18.484375 -53.515625 L 19.046875 -67.28125 C 19.097656 -68.582031 19.554688 -69.523438 20.421875 -70.109375 C 21.285156 -70.703125 22.21875 -70.976562 23.21875 -70.9375 C 24.269531 -70.894531 25.234375 -70.515625 26.109375 -69.796875 C 26.984375 -69.078125 27.390625 -68.0625 27.328125 -66.75 L 26.8125 -53.734375 C 27.925781 -53.753906 28.960938 -53.773438 29.921875 -53.796875 C 30.878906 -53.816406 31.734375 -53.84375 32.484375 -53.875 C 33.984375 -53.925781 35.117188 -53.5625 35.890625 -52.78125 C 36.671875 -52.007812 37.085938 -51.09375 37.140625 -50.03125 C 37.191406 -48.976562 36.867188 -48.046875 36.171875 -47.234375 C 35.484375 -46.421875 34.425781 -46.015625 33 -46.015625 C 31.882812 -45.992188 30.804688 -45.976562 29.765625 -45.96875 L 26.578125 -45.90625 C 26.367188 -40.757812 26.253906 -35.601562 26.234375 -30.4375 C 28.378906 -31.351562 29.957031 -32.066406 30.96875 -32.578125 C 32.300781 -33.273438 33.441406 -33.398438 34.390625 -32.953125 C 35.335938 -32.503906 35.988281 -31.789062 36.34375 -30.8125 C 36.707031 -29.832031 36.726562 -28.820312 36.40625 -27.78125 C 36.09375 -26.75 35.304688 -25.945312 34.046875 -25.375 C 32.828125 -24.800781 31.554688 -24.242188 30.234375 -23.703125 C 28.921875 -23.171875 27.535156 -22.597656 26.078125 -21.984375 C 26.003906 -18.617188 25.945312 -15.273438 25.90625 -11.953125 C 25.863281 -8.640625 25.804688 -5.332031 25.734375 -2.03125 C 25.742188 -0.84375 25.285156 0.0703125 24.359375 0.71875 C 23.429688 1.363281 22.4375 1.664062 21.375 1.625 C 20.320312 1.582031 19.375 1.203125 18.53125 0.484375 C 17.6875 -0.234375 17.296875 -1.28125 17.359375 -2.65625 C 17.398438 -5.382812 17.441406 -8.066406 17.484375 -10.703125 C 17.535156 -13.347656 17.582031 -16.003906 17.625 -18.671875 C 16.8125 -18.390625 15.976562 -18.082031 15.125 -17.75 C 14.269531 -17.414062 13.398438 -17.109375 12.515625 -16.828125 Z M 40.25 -6.109375 C 39.769531 -5.015625 39.039062 -4.34375 38.0625 -4.09375 C 37.09375 -3.851562 36.148438 -3.96875 35.234375 -4.4375 C 34.316406 -4.914062 33.644531 -5.640625 33.21875 -6.609375 C 32.789062 -7.585938 32.859375 -8.75 33.421875 -10.09375 C 34.929688 -13.707031 36.21875 -17.15625 37.28125 -20.4375 C 38.351562 -23.726562 39.253906 -27.160156 39.984375 -30.734375 C 40.722656 -34.304688 41.347656 -38.269531 41.859375 -42.625 C 42.378906 -46.976562 42.820312 -52.078125 43.1875 -57.921875 C 41.90625 -58.335938 41.101562 -59.160156 40.78125 -60.390625 C 40.457031 -61.617188 40.597656 -62.773438 41.203125 -63.859375 C 41.804688 -64.953125 42.789062 -65.535156 44.15625 -65.609375 C 45.71875 -65.660156 47.738281 -65.726562 50.21875 -65.8125 C 52.707031 -65.90625 55.398438 -65.96875 58.296875 -66 C 61.191406 -66.039062 64.082031 -66.066406 66.96875 -66.078125 C 69.851562 -66.085938 72.539062 -66.085938 75.03125 -66.078125 C 77.519531 -66.066406 79.539062 -66.03125 81.09375 -65.96875 C 82.519531 -65.914062 83.554688 -65.484375 84.203125 -64.671875 C 84.859375 -63.867188 85.164062 -62.941406 85.125 -61.890625 C 85.082031 -60.835938 84.734375 -59.921875 84.078125 -59.140625 C 83.421875 -58.359375 82.503906 -57.992188 81.328125 -58.046875 C 79.648438 -58.046875 77.597656 -58.046875 75.171875 -58.046875 C 72.742188 -58.054688 70.132812 -58.070312 67.34375 -58.09375 C 64.550781 -58.113281 61.769531 -58.101562 59 -58.0625 C 56.238281 -58.019531 53.671875 -57.988281 51.296875 -57.96875 C 50.921875 -51.6875 50.445312 -46.148438 49.875 -41.359375 C 49.3125 -36.566406 48.59375 -32.21875 47.71875 -28.3125 C 46.84375 -24.40625 45.804688 -20.671875 44.609375 -17.109375 C 43.410156 -13.546875 41.957031 -9.878906 40.25 -6.109375 Z M 67.890625 1.46875 C 63.890625 2.414062 60.816406 2.875 58.671875 2.84375 C 56.523438 2.820312 55.046875 2.359375 54.234375 1.453125 C 53.429688 0.554688 53.003906 -0.703125 52.953125 -2.328125 C 52.921875 -4.378906 52.90625 -6.660156 52.90625 -9.171875 C 52.914062 -11.691406 52.972656 -14.222656 53.078125 -16.765625 C 53.179688 -19.316406 53.304688 -21.644531 53.453125 -23.75 C 53.566406 -25.050781 54.039062 -25.960938 54.875 -26.484375 C 55.707031 -27.003906 56.628906 -27.210938 57.640625 -27.109375 C 58.660156 -27.003906 59.53125 -26.644531 60.25 -26.03125 C 60.976562 -25.414062 61.320312 -24.578125 61.28125 -23.515625 C 61.09375 -20.660156 60.945312 -17.539062 60.84375 -14.15625 C 60.738281 -10.769531 60.71875 -7.523438 60.78125 -4.421875 C 62.34375 -4.671875 63.546875 -4.9375 64.390625 -5.21875 C 65.242188 -5.5 66.113281 -5.738281 67 -5.9375 C 68.125 -6.207031 69.0625 -6.0625 69.8125 -5.5 C 70.570312 -4.945312 71.070312 -4.179688 71.3125 -3.203125 C 71.550781 -2.234375 71.414062 -1.304688 70.90625 -0.421875 C 70.40625 0.453125 69.398438 1.082031 67.890625 1.46875 Z M 77.84375 -0.015625 C 74.84375 -2.679688 72.269531 -5.5 70.125 -8.46875 C 67.976562 -11.445312 66.054688 -14.960938 64.359375 -19.015625 C 63.847656 -20.210938 63.796875 -21.285156 64.203125 -22.234375 C 64.617188 -23.179688 65.269531 -23.867188 66.15625 -24.296875 C 67.039062 -24.734375 67.957031 -24.789062 68.90625 -24.46875 C 69.863281 -24.15625 70.625 -23.363281 71.1875 -22.09375 L 72.390625 -19.53125 C 72.734375 -18.695312 73.078125 -17.9375 73.421875 -17.25 L 73.796875 -17.515625 C 74.953125 -18.148438 75.898438 -18.757812 76.640625 -19.34375 C 77.378906 -19.9375 78.257812 -20.617188 79.28125 -21.390625 C 80.238281 -22.109375 81.148438 -22.367188 82.015625 -22.171875 C 82.878906 -21.984375 83.585938 -21.519531 84.140625 -20.78125 C 84.703125 -20.039062 84.960938 -19.234375 84.921875 -18.359375 C 84.890625 -17.492188 84.425781 -16.707031 83.53125 -16 C 82.769531 -15.394531 82.144531 -14.898438 81.65625 -14.515625 C 81.175781 -14.140625 80.679688 -13.773438 80.171875 -13.421875 C 79.660156 -13.066406 78.925781 -12.601562 77.96875 -12.03125 C 77.78125 -11.96875 77.609375 -11.894531 77.453125 -11.8125 C 77.296875 -11.726562 77.148438 -11.65625 77.015625 -11.59375 C 77.960938 -10.375 78.941406 -9.257812 79.953125 -8.25 C 80.972656 -7.25 82.144531 -6.203125 83.46875 -5.109375 C 84.59375 -4.117188 85.132812 -3.066406 85.09375 -1.953125 C 85.050781 -1.015625 84.660156 -0.222656 83.921875 0.421875 C 83.191406 1.078125 82.269531 1.398438 81.15625 1.390625 C 80.039062 1.378906 78.9375 0.910156 77.84375 -0.015625 Z M 55.046875 -28.703125 C 53.742188 -28.691406 52.765625 -29.054688 52.109375 -29.796875 C 51.460938 -30.546875 51.144531 -31.414062 51.15625 -32.40625 C 51.164062 -33.40625 51.476562 -34.3125 52.09375 -35.125 C 52.71875 -35.9375 53.679688 -36.347656 54.984375 -36.359375 C 58.546875 -36.523438 62.46875 -36.613281 66.75 -36.625 C 71.039062 -36.644531 75.765625 -36.550781 80.921875 -36.34375 C 82.035156 -36.289062 82.882812 -35.878906 83.46875 -35.109375 C 84.0625 -34.335938 84.351562 -33.453125 84.34375 -32.453125 C 84.332031 -31.460938 84 -30.59375 83.34375 -29.84375 C 82.695312 -29.09375 81.660156 -28.742188 80.234375 -28.796875 C 76.066406 -28.910156 71.734375 -28.960938 67.234375 -28.953125 C 62.734375 -28.953125 58.671875 -28.867188 55.046875 -28.703125 Z M 57.609375 -43.625 C 56.367188 -43.613281 55.4375 -43.972656 54.8125 -44.703125 C 54.195312 -45.441406 53.890625 -46.273438 53.890625 -47.203125 C 53.898438 -48.140625 54.210938 -48.984375 54.828125 -49.734375 C 55.453125 -50.484375 56.351562 -50.867188 57.53125 -50.890625 C 61.207031 -50.929688 64.566406 -50.953125 67.609375 -50.953125 C 70.648438 -50.953125 73.972656 -50.878906 77.578125 -50.734375 C 78.878906 -50.679688 79.828125 -50.285156 80.421875 -49.546875 C 81.023438 -48.804688 81.289062 -47.953125 81.21875 -46.984375 C 81.144531 -46.023438 80.75 -45.1875 80.03125 -44.46875 C 79.320312 -43.75 78.3125 -43.414062 77 -43.46875 C 74.644531 -43.570312 72.453125 -43.617188 70.421875 -43.609375 C 68.398438 -43.597656 66.382812 -43.601562 64.375 -43.625 C 62.363281 -43.644531 60.109375 -43.644531 57.609375 -43.625 Z M 57.609375 -43.625 "/></g></g></g></svg>