<svg xmlns="http://www.w3.org/2000/svg" xmlns:xlink="http://www.w3.org/1999/xlink" width="300" zoomAndPan="magnify" viewBox="0 0 224.87999 74.999997" height="100" preserveAspectRatio="xMidYMid meet" version="1.0"><defs><g/><clipPath id="95768ccc00"><path d="M 143 47 L 172 47 L 172 74.980469 L 143 74.980469 Z M 143 47 " clip-rule="nonzero"/></clipPath></defs><g fill="#e18256" fill-opacity="1"><g transform="translate(5.996799, 46.604383)"><g><path d="M 26.6875 -34.734375 C 28.425781 -34.253906 29.742188 -33.4375 30.640625 -32.28125 C 31.535156 -31.125 31.910156 -29.851562 31.765625 -28.46875 C 31.628906 -27.082031 30.910156 -25.71875 29.609375 -24.375 C 28.304688 -23.03125 26.320312 -21.9375 23.65625 -21.09375 C 24.96875 -20.488281 26.085938 -19.582031 27.015625 -18.375 C 27.953125 -17.175781 28.644531 -15.835938 29.09375 -14.359375 C 29.550781 -12.878906 29.722656 -11.335938 29.609375 -9.734375 C 29.492188 -8.128906 29.050781 -6.59375 28.28125 -5.125 C 27.507812 -3.664062 26.375 -2.347656 24.875 -1.171875 C 23.382812 -0.00390625 21.453125 0.863281 19.078125 1.4375 C 17.890625 1.726562 16.882812 1.625 16.0625 1.125 C 15.25 0.632812 14.679688 0.015625 14.359375 -0.734375 C 14.035156 -1.492188 14.007812 -2.234375 14.28125 -2.953125 C 14.5625 -3.679688 15.195312 -4.125 16.1875 -4.28125 C 17.820312 -4.539062 19.171875 -5.023438 20.234375 -5.734375 C 21.296875 -6.441406 22.082031 -7.25 22.59375 -8.15625 C 23.113281 -9.070312 23.375 -10.046875 23.375 -11.078125 C 23.375 -12.140625 23.144531 -13.148438 22.6875 -14.109375 C 22.238281 -15.078125 21.582031 -15.953125 20.71875 -16.734375 C 19.851562 -17.523438 18.796875 -18.113281 17.546875 -18.5 C 16.835938 -18.71875 16.320312 -19.148438 16 -19.796875 C 15.675781 -20.441406 15.546875 -21.109375 15.609375 -21.796875 C 15.671875 -22.484375 15.921875 -23.128906 16.359375 -23.734375 C 16.796875 -24.347656 17.398438 -24.738281 18.171875 -24.90625 C 19.484375 -25.195312 20.644531 -25.535156 21.65625 -25.921875 C 22.664062 -26.304688 23.441406 -26.691406 23.984375 -27.078125 C 24.535156 -27.460938 24.816406 -27.820312 24.828125 -28.15625 C 24.847656 -28.488281 24.503906 -28.769531 23.796875 -29 C 22.640625 -29.351562 21.070312 -29.65625 19.09375 -29.90625 C 17.125 -30.164062 15.046875 -30.3125 12.859375 -30.34375 C 11.960938 -30.34375 11.296875 -30.65625 10.859375 -31.28125 C 10.429688 -31.914062 10.238281 -32.597656 10.28125 -33.328125 C 10.332031 -34.066406 10.613281 -34.738281 11.125 -35.34375 C 11.644531 -35.957031 12.382812 -36.265625 13.34375 -36.265625 C 14.53125 -36.265625 15.742188 -36.222656 16.984375 -36.140625 C 18.222656 -36.066406 19.425781 -35.957031 20.59375 -35.8125 C 21.769531 -35.664062 22.878906 -35.503906 23.921875 -35.328125 C 24.960938 -35.148438 25.882812 -34.953125 26.6875 -34.734375 Z M 41.96875 -6.171875 C 42.25 -5.265625 42.148438 -4.484375 41.671875 -3.828125 C 41.191406 -3.171875 40.570312 -2.703125 39.8125 -2.421875 C 39.0625 -2.148438 38.300781 -2.128906 37.53125 -2.359375 C 36.757812 -2.585938 36.242188 -3.117188 35.984375 -3.953125 C 35.316406 -6.171875 34.515625 -8.28125 33.578125 -10.28125 C 32.648438 -12.289062 31.625 -14.097656 30.5 -15.703125 C 29.988281 -16.441406 29.890625 -17.144531 30.203125 -17.8125 C 30.523438 -18.488281 31.023438 -19.03125 31.703125 -19.4375 C 32.378906 -19.84375 33.125 -20.023438 33.9375 -19.984375 C 34.757812 -19.953125 35.410156 -19.585938 35.890625 -18.890625 C 37.140625 -16.992188 38.285156 -14.941406 39.328125 -12.734375 C 40.378906 -10.535156 41.257812 -8.347656 41.96875 -6.171875 Z M 14.65625 -14.5 C 13.457031 -12.863281 12.3125 -10.984375 11.21875 -8.859375 C 10.132812 -6.742188 9.191406 -4.65625 8.390625 -2.59375 C 8.097656 -1.820312 7.554688 -1.375 6.765625 -1.25 C 5.984375 -1.125 5.207031 -1.226562 4.4375 -1.5625 C 3.664062 -1.90625 3.046875 -2.410156 2.578125 -3.078125 C 2.117188 -3.753906 2.046875 -4.492188 2.359375 -5.296875 C 3.160156 -7.222656 4.15625 -9.328125 5.34375 -11.609375 C 6.539062 -13.890625 7.859375 -16.070312 9.296875 -18.15625 C 9.847656 -18.957031 10.539062 -19.359375 11.375 -19.359375 C 12.207031 -19.359375 12.960938 -19.132812 13.640625 -18.6875 C 14.316406 -18.238281 14.789062 -17.617188 15.0625 -16.828125 C 15.332031 -16.046875 15.195312 -15.269531 14.65625 -14.5 Z M 14.65625 -14.5 "/></g></g></g><g fill="#e18256" fill-opacity="1"><g transform="translate(50.320637, 46.604383)"><g><path d="M 31.9375 -18.890625 C 31.84375 -16.410156 31.476562 -14.09375 30.84375 -11.9375 C 30.21875 -9.789062 29.398438 -7.828125 28.390625 -6.046875 C 27.378906 -4.265625 26.195312 -2.691406 24.84375 -1.328125 C 23.5 0.0351562 22.054688 1.171875 20.515625 2.078125 C 19.585938 2.617188 18.707031 2.726562 17.875 2.40625 C 17.039062 2.082031 16.378906 1.566406 15.890625 0.859375 C 15.410156 0.160156 15.171875 -0.601562 15.171875 -1.4375 C 15.171875 -2.28125 15.539062 -2.957031 16.28125 -3.46875 C 17.3125 -4.207031 18.335938 -5.054688 19.359375 -6.015625 C 20.390625 -6.984375 21.320312 -8.078125 22.15625 -9.296875 C 22.988281 -10.515625 23.6875 -11.894531 24.25 -13.4375 C 24.8125 -14.976562 25.160156 -16.679688 25.296875 -18.546875 C 25.390625 -19.859375 25.425781 -21.179688 25.40625 -22.515625 C 25.394531 -23.847656 25.273438 -25.050781 25.046875 -26.125 C 24.828125 -27.207031 24.46875 -28.078125 23.96875 -28.734375 C 23.46875 -29.390625 22.769531 -29.703125 21.875 -29.671875 C 21.070312 -29.640625 20.273438 -29.34375 19.484375 -28.78125 C 18.691406 -28.21875 17.925781 -27.460938 17.1875 -26.515625 C 16.457031 -25.566406 15.757812 -24.484375 15.09375 -23.265625 C 14.4375 -22.046875 13.828125 -20.757812 13.265625 -19.40625 C 12.703125 -18.0625 12.21875 -16.707031 11.8125 -15.34375 C 11.414062 -13.976562 11.09375 -12.671875 10.84375 -11.421875 C 10.707031 -10.679688 10.3125 -10.140625 9.65625 -9.796875 C 9 -9.460938 8.300781 -9.3125 7.5625 -9.34375 C 6.820312 -9.375 6.144531 -9.585938 5.53125 -9.984375 C 4.925781 -10.390625 4.59375 -10.945312 4.53125 -11.65625 C 4.363281 -13.394531 4.269531 -15.304688 4.25 -17.390625 C 4.238281 -19.472656 4.273438 -21.566406 4.359375 -23.671875 C 4.441406 -25.773438 4.578125 -27.804688 4.765625 -29.765625 C 4.960938 -31.722656 5.203125 -33.441406 5.484375 -34.921875 C 5.679688 -35.890625 6.164062 -36.53125 6.9375 -36.84375 C 7.707031 -37.164062 8.5 -37.242188 9.3125 -37.078125 C 10.132812 -36.921875 10.832031 -36.554688 11.40625 -35.984375 C 11.988281 -35.410156 12.1875 -34.671875 12 -33.765625 C 11.675781 -32.421875 11.425781 -31.265625 11.25 -30.296875 C 11.070312 -29.335938 10.914062 -28.476562 10.78125 -27.71875 C 10.65625 -26.96875 10.535156 -26.28125 10.421875 -25.65625 C 10.316406 -25.03125 10.179688 -24.378906 10.015625 -23.703125 C 10.304688 -24.722656 10.753906 -25.929688 11.359375 -27.328125 C 11.972656 -28.734375 12.757812 -30.066406 13.71875 -31.328125 C 14.6875 -32.597656 15.851562 -33.679688 17.21875 -34.578125 C 18.582031 -35.484375 20.148438 -35.953125 21.921875 -35.984375 C 23.492188 -36.015625 24.84375 -35.78125 25.96875 -35.28125 C 27.09375 -34.789062 28.039062 -34.117188 28.8125 -33.265625 C 29.582031 -32.410156 30.179688 -31.40625 30.609375 -30.25 C 31.046875 -29.09375 31.375 -27.878906 31.59375 -26.609375 C 31.820312 -25.347656 31.953125 -24.050781 31.984375 -22.71875 C 32.015625 -21.382812 32 -20.109375 31.9375 -18.890625 Z M 31.9375 -18.890625 "/></g></g></g><g fill="#e18256" fill-opacity="1"><g transform="translate(86.454167, 46.604383)"><g><path d="M 45.515625 -33.28125 C 45.742188 -32.832031 45.753906 -32.421875 45.546875 -32.046875 C 45.335938 -31.679688 45.039062 -31.394531 44.65625 -31.1875 C 44.269531 -30.976562 43.875 -30.890625 43.46875 -30.921875 C 43.070312 -30.953125 42.773438 -31.144531 42.578125 -31.5 C 42.160156 -32.269531 41.75 -32.941406 41.34375 -33.515625 C 40.945312 -34.097656 40.460938 -34.804688 39.890625 -35.640625 C 39.597656 -36.023438 39.53125 -36.398438 39.6875 -36.765625 C 39.851562 -37.140625 40.101562 -37.4375 40.4375 -37.65625 C 40.78125 -37.882812 41.164062 -38.015625 41.59375 -38.046875 C 42.03125 -38.085938 42.394531 -37.929688 42.6875 -37.578125 C 43.414062 -36.640625 43.984375 -35.859375 44.390625 -35.234375 C 44.796875 -34.609375 45.171875 -33.957031 45.515625 -33.28125 Z M 40.796875 -31.59375 C 41.023438 -31.144531 41.035156 -30.734375 40.828125 -30.359375 C 40.617188 -29.992188 40.320312 -29.707031 39.9375 -29.5 C 39.550781 -29.289062 39.148438 -29.203125 38.734375 -29.234375 C 38.316406 -29.265625 38.007812 -29.457031 37.8125 -29.8125 C 37.394531 -30.582031 36.992188 -31.253906 36.609375 -31.828125 C 36.222656 -32.410156 35.742188 -33.125 35.171875 -33.96875 C 34.878906 -34.351562 34.8125 -34.726562 34.96875 -35.09375 C 35.132812 -35.457031 35.382812 -35.757812 35.71875 -36 C 36.050781 -36.25 36.4375 -36.378906 36.875 -36.390625 C 37.3125 -36.410156 37.671875 -36.242188 37.953125 -35.890625 C 38.691406 -34.992188 39.257812 -34.222656 39.65625 -33.578125 C 40.0625 -32.929688 40.441406 -32.269531 40.796875 -31.59375 Z M 45 -14.640625 C 45.21875 -13.960938 45.253906 -13.332031 45.109375 -12.75 C 44.960938 -12.175781 44.695312 -11.679688 44.3125 -11.265625 C 43.925781 -10.847656 43.46875 -10.507812 42.9375 -10.25 C 42.414062 -10 41.878906 -9.875 41.328125 -9.875 C 40.816406 -9.875 40.335938 -10.019531 39.890625 -10.3125 C 39.441406 -10.601562 39.101562 -11.050781 38.875 -11.65625 C 38.488281 -12.78125 38.015625 -13.953125 37.453125 -15.171875 C 36.890625 -16.390625 36.265625 -17.625 35.578125 -18.875 C 34.890625 -20.132812 34.132812 -21.363281 33.3125 -22.5625 C 32.488281 -23.769531 31.644531 -24.890625 30.78125 -25.921875 C 30.207031 -26.585938 30.054688 -27.296875 30.328125 -28.046875 C 30.597656 -28.804688 31.078125 -29.421875 31.765625 -29.890625 C 32.460938 -30.359375 33.242188 -30.597656 34.109375 -30.609375 C 34.972656 -30.628906 35.710938 -30.253906 36.328125 -29.484375 C 37.160156 -28.390625 38 -27.238281 38.84375 -26.03125 C 39.695312 -24.832031 40.5 -23.597656 41.25 -22.328125 C 42.007812 -21.054688 42.707031 -19.769531 43.34375 -18.46875 C 43.988281 -17.164062 44.539062 -15.890625 45 -14.640625 Z M 32.46875 -16.328125 C 32.082031 -13.023438 31.164062 -9.847656 29.71875 -6.796875 C 28.269531 -3.742188 26.390625 -1.03125 24.078125 1.34375 C 23.597656 1.832031 23.078125 2.140625 22.515625 2.265625 C 21.953125 2.390625 21.390625 2.378906 20.828125 2.234375 C 20.265625 2.085938 19.757812 1.835938 19.3125 1.484375 C 18.863281 1.140625 18.519531 0.738281 18.28125 0.28125 C 18.039062 -0.164062 17.9375 -0.644531 17.96875 -1.15625 C 18 -1.664062 18.238281 -2.144531 18.6875 -2.59375 C 19.65625 -3.625 20.539062 -4.722656 21.34375 -5.890625 C 22.144531 -7.066406 22.847656 -8.25 23.453125 -9.4375 C 24.066406 -10.625 24.554688 -11.8125 24.921875 -13 C 25.296875 -14.1875 25.53125 -15.3125 25.625 -16.375 C 25.789062 -18.113281 25.488281 -19.503906 24.71875 -20.546875 C 23.945312 -21.585938 22.914062 -22.191406 21.625 -22.359375 C 20.882812 -22.421875 20.160156 -22.472656 19.453125 -22.515625 C 18.753906 -22.566406 18.035156 -22.578125 17.296875 -22.546875 C 16.359375 -19.523438 15.507812 -16.398438 14.75 -13.171875 C 14 -9.941406 13.414062 -6.914062 13 -4.09375 C 12.90625 -3.445312 12.671875 -2.9375 12.296875 -2.5625 C 11.929688 -2.195312 11.5 -1.957031 11 -1.84375 C 10.507812 -1.738281 9.988281 -1.738281 9.4375 -1.84375 C 8.894531 -1.957031 8.40625 -2.160156 7.96875 -2.453125 C 7.539062 -2.742188 7.195312 -3.113281 6.9375 -3.5625 C 6.675781 -4.007812 6.578125 -4.523438 6.640625 -5.109375 C 6.929688 -7.421875 7.414062 -10.050781 8.09375 -13 C 8.769531 -15.957031 9.539062 -18.945312 10.40625 -21.96875 C 9.726562 -21.84375 9.0625 -21.710938 8.40625 -21.578125 C 7.75 -21.453125 7.097656 -21.304688 6.453125 -21.140625 C 5.679688 -20.953125 5.054688 -21.113281 4.578125 -21.625 C 4.097656 -22.144531 3.789062 -22.769531 3.65625 -23.5 C 3.53125 -24.238281 3.601562 -24.96875 3.875 -25.6875 C 4.144531 -26.414062 4.664062 -26.878906 5.4375 -27.078125 C 6.53125 -27.359375 7.65625 -27.585938 8.8125 -27.765625 C 9.96875 -27.941406 11.15625 -28.082031 12.375 -28.1875 C 12.863281 -29.59375 13.347656 -30.929688 13.828125 -32.203125 C 14.304688 -33.472656 14.769531 -34.632812 15.21875 -35.6875 C 15.570312 -36.457031 16.179688 -36.945312 17.046875 -37.15625 C 17.921875 -37.375 18.773438 -37.359375 19.609375 -37.109375 C 20.441406 -36.867188 21.097656 -36.453125 21.578125 -35.859375 C 22.054688 -35.265625 22.085938 -34.582031 21.671875 -33.8125 C 21.253906 -33.039062 20.851562 -32.195312 20.46875 -31.28125 C 20.082031 -30.375 19.679688 -29.40625 19.265625 -28.375 C 19.710938 -28.34375 20.160156 -28.316406 20.609375 -28.296875 C 21.066406 -28.285156 21.519531 -28.265625 21.96875 -28.234375 C 23.757812 -28.097656 25.347656 -27.707031 26.734375 -27.0625 C 28.117188 -26.425781 29.265625 -25.585938 30.171875 -24.546875 C 31.085938 -23.503906 31.742188 -22.28125 32.140625 -20.875 C 32.546875 -19.476562 32.65625 -17.960938 32.46875 -16.328125 Z M 32.46875 -16.328125 "/></g></g></g><g fill="#e18256" fill-opacity="1"><g transform="translate(134.15043, 46.604383)"><g><path d="M 42.046875 -25.875 C 42.628906 -25.195312 42.832031 -24.488281 42.65625 -23.75 C 42.476562 -23.007812 42.113281 -22.363281 41.5625 -21.8125 C 41.019531 -21.269531 40.394531 -20.914062 39.6875 -20.75 C 38.976562 -20.59375 38.351562 -20.757812 37.8125 -21.25 C 37.332031 -21.726562 36.875 -22.148438 36.4375 -22.515625 C 36 -22.890625 35.570312 -23.242188 35.15625 -23.578125 C 34.738281 -23.910156 34.304688 -24.242188 33.859375 -24.578125 C 33.410156 -24.921875 32.894531 -25.285156 32.3125 -25.671875 C 31.644531 -26.117188 31.347656 -26.703125 31.421875 -27.421875 C 31.503906 -28.148438 31.785156 -28.816406 32.265625 -29.421875 C 32.753906 -30.035156 33.363281 -30.488281 34.09375 -30.78125 C 34.832031 -31.070312 35.539062 -31.007812 36.21875 -30.59375 C 37.4375 -29.851562 38.523438 -29.097656 39.484375 -28.328125 C 40.453125 -27.554688 41.304688 -26.738281 42.046875 -25.875 Z M 26.875 -31.359375 C 27.738281 -31.328125 28.367188 -31 28.765625 -30.375 C 29.171875 -29.75 29.347656 -29.066406 29.296875 -28.328125 C 29.253906 -27.585938 29.015625 -26.921875 28.578125 -26.328125 C 28.148438 -25.734375 27.535156 -25.453125 26.734375 -25.484375 C 25.378906 -25.546875 23.972656 -25.582031 22.515625 -25.59375 C 21.054688 -25.613281 19.570312 -25.609375 18.0625 -25.578125 C 16.644531 -22.847656 15.3125 -19.988281 14.0625 -17 C 12.8125 -14.019531 11.554688 -10.8125 10.296875 -7.375 C 10.078125 -6.757812 9.742188 -6.304688 9.296875 -6.015625 C 8.847656 -5.734375 8.359375 -5.582031 7.828125 -5.5625 C 7.296875 -5.550781 6.765625 -5.640625 6.234375 -5.828125 C 5.703125 -6.023438 5.242188 -6.304688 4.859375 -6.671875 C 4.472656 -7.035156 4.207031 -7.472656 4.0625 -7.984375 C 3.914062 -8.503906 3.957031 -9.054688 4.1875 -9.640625 C 5.3125 -12.617188 6.414062 -15.367188 7.5 -17.890625 C 8.59375 -20.410156 9.703125 -22.84375 10.828125 -25.1875 C 9.484375 -25.125 8.21875 -25.03125 7.03125 -24.90625 C 6.125 -24.8125 5.4375 -25.046875 4.96875 -25.609375 C 4.507812 -26.171875 4.265625 -26.8125 4.234375 -27.53125 C 4.203125 -28.25 4.394531 -28.929688 4.8125 -29.578125 C 5.226562 -30.222656 5.867188 -30.59375 6.734375 -30.6875 C 7.734375 -30.78125 8.832031 -30.875 10.03125 -30.96875 C 11.238281 -31.070312 12.519531 -31.15625 13.875 -31.21875 C 14.382812 -32.144531 14.894531 -33.082031 15.40625 -34.03125 C 15.925781 -34.976562 16.457031 -35.9375 17 -36.90625 C 17.476562 -37.738281 18.148438 -38.191406 19.015625 -38.265625 C 19.890625 -38.347656 20.710938 -38.210938 21.484375 -37.859375 C 22.253906 -37.503906 22.832031 -36.972656 23.21875 -36.265625 C 23.601562 -35.566406 23.535156 -34.832031 23.015625 -34.0625 C 22.734375 -33.613281 22.453125 -33.175781 22.171875 -32.75 C 21.898438 -32.332031 21.640625 -31.898438 21.390625 -31.453125 C 22.410156 -31.453125 23.367188 -31.453125 24.265625 -31.453125 C 25.203125 -31.453125 26.070312 -31.421875 26.875 -31.359375 Z M 40.5 -7.65625 C 41.207031 -6.882812 41.515625 -6.066406 41.421875 -5.203125 C 41.328125 -4.335938 41.015625 -3.609375 40.484375 -3.015625 C 39.953125 -2.421875 39.300781 -2.050781 38.53125 -1.90625 C 37.757812 -1.757812 37.050781 -2.023438 36.40625 -2.703125 C 35.664062 -3.472656 34.832031 -4.226562 33.90625 -4.96875 C 33.164062 -2.9375 32.007812 -1.296875 30.4375 -0.046875 C 28.863281 1.203125 26.859375 1.910156 24.421875 2.078125 C 22.816406 2.171875 21.378906 2.015625 20.109375 1.609375 C 18.835938 1.210938 17.757812 0.644531 16.875 -0.09375 C 15.988281 -0.832031 15.3125 -1.679688 14.84375 -2.640625 C 14.382812 -3.609375 14.15625 -4.609375 14.15625 -5.640625 C 14.15625 -6.859375 14.421875 -8.003906 14.953125 -9.078125 C 15.484375 -10.148438 16.222656 -11.085938 17.171875 -11.890625 C 18.117188 -12.703125 19.21875 -13.332031 20.46875 -13.78125 C 21.71875 -14.226562 23.066406 -14.453125 24.515625 -14.453125 C 25.191406 -14.453125 25.863281 -14.425781 26.53125 -14.375 C 27.207031 -14.332031 27.898438 -14.226562 28.609375 -14.0625 C 28.546875 -15.15625 28.445312 -16.210938 28.3125 -17.234375 C 28.1875 -18.265625 27.992188 -19.21875 27.734375 -20.09375 C 27.515625 -20.925781 27.675781 -21.609375 28.21875 -22.140625 C 28.769531 -22.671875 29.453125 -22.988281 30.265625 -23.09375 C 31.085938 -23.207031 31.890625 -23.078125 32.671875 -22.703125 C 33.460938 -22.335938 33.957031 -21.675781 34.15625 -20.71875 C 34.4375 -19.363281 34.632812 -17.992188 34.75 -16.609375 C 34.863281 -15.234375 34.90625 -13.679688 34.875 -11.953125 C 35.894531 -11.398438 36.878906 -10.78125 37.828125 -10.09375 C 38.773438 -9.40625 39.664062 -8.59375 40.5 -7.65625 Z M 28.46875 -8.140625 C 26.925781 -8.722656 25.507812 -8.992188 24.21875 -8.953125 C 23.582031 -8.953125 23.019531 -8.863281 22.53125 -8.6875 C 22.050781 -8.519531 21.660156 -8.296875 21.359375 -8.015625 C 21.054688 -7.742188 20.816406 -7.457031 20.640625 -7.15625 C 20.460938 -6.851562 20.375 -6.554688 20.375 -6.265625 C 20.375 -5.941406 20.421875 -5.617188 20.515625 -5.296875 C 20.609375 -4.972656 20.785156 -4.679688 21.046875 -4.421875 C 21.304688 -4.171875 21.660156 -3.957031 22.109375 -3.78125 C 22.554688 -3.601562 23.132812 -3.515625 23.84375 -3.515625 C 25 -3.515625 25.976562 -3.914062 26.78125 -4.71875 C 27.582031 -5.519531 28.144531 -6.660156 28.46875 -8.140625 Z M 28.46875 -8.140625 "/></g></g></g><g clip-path="url(#95768ccc00)"><g fill="#2ecc71" fill-opacity="1"><g transform="translate(145.838574, 73.178208)"><g><path d="M 19.296875 -13.765625 C 19.140625 -13.242188 18.875 -12.894531 18.5 -12.71875 C 18.132812 -12.550781 17.695312 -12.539062 17.1875 -12.6875 L 14.78125 -13.46875 C 14.28125 -13.644531 13.945312 -13.90625 13.78125 -14.25 C 13.625 -14.601562 13.601562 -15.046875 13.71875 -15.578125 C 13.789062 -15.941406 13.828125 -16.300781 13.828125 -16.65625 C 13.835938 -17.007812 13.816406 -17.394531 13.765625 -17.8125 L 1.09375 -12.875 C -0.0195312 -12.457031 -0.726562 -12.8125 -1.03125 -13.9375 L -1.90625 -17.109375 C -2.1875 -18.171875 -1.820312 -18.875 -0.8125 -19.21875 L 16.265625 -25.234375 C 17.234375 -25.578125 17.972656 -25.296875 18.484375 -24.390625 L 19.75 -22.15625 C 19.957031 -21.78125 20.097656 -21.453125 20.171875 -21.171875 C 20.253906 -20.898438 20.296875 -20.597656 20.296875 -20.265625 C 20.253906 -19.304688 20.144531 -18.25 19.96875 -17.09375 C 19.800781 -15.9375 19.578125 -14.828125 19.296875 -13.765625 Z M 12.609375 -1.953125 C 12.359375 -1.523438 12.039062 -1.253906 11.65625 -1.140625 C 11.269531 -1.035156 10.84375 -1.050781 10.375 -1.1875 L 7.421875 -2.171875 C 6.273438 -2.535156 6.035156 -3.285156 6.703125 -4.421875 C 7.253906 -5.398438 7.613281 -6.265625 7.78125 -7.015625 C 7.945312 -7.773438 7.925781 -8.492188 7.71875 -9.171875 C 7.507812 -9.847656 7.164062 -10.550781 6.6875 -11.28125 C 6.039062 -12.25 6.179688 -13.03125 7.109375 -13.625 L 9.546875 -15.171875 C 10.484375 -15.765625 11.210938 -15.6875 11.734375 -14.9375 C 12.566406 -13.78125 13.203125 -12.472656 13.640625 -11.015625 C 14.078125 -9.554688 14.234375 -8.050781 14.109375 -6.5 C 13.984375 -4.945312 13.484375 -3.429688 12.609375 -1.953125 Z M 12.609375 -1.953125 "/></g></g></g></g><g fill="#2ecc71" fill-opacity="1"><g transform="translate(172.481184, 64.579097)"><g><path d="M 16.875 -19.390625 C 16.15625 -19.160156 15.441406 -19.125 14.734375 -19.28125 C 14.023438 -19.445312 13.394531 -19.769531 12.84375 -20.25 C 12.300781 -20.738281 11.914062 -21.335938 11.6875 -22.046875 C 11.457031 -22.765625 11.425781 -23.472656 11.59375 -24.171875 C 11.757812 -24.867188 12.082031 -25.488281 12.5625 -26.03125 C 13.039062 -26.582031 13.640625 -26.972656 14.359375 -27.203125 C 15.054688 -27.429688 15.753906 -27.460938 16.453125 -27.296875 C 17.160156 -27.128906 17.785156 -26.8125 18.328125 -26.34375 C 18.867188 -25.875 19.253906 -25.28125 19.484375 -24.5625 C 19.710938 -23.851562 19.742188 -23.140625 19.578125 -22.421875 C 19.421875 -21.710938 19.101562 -21.085938 18.625 -20.546875 C 18.15625 -20.003906 17.570312 -19.617188 16.875 -19.390625 Z M 15.96875 -22.203125 C 16.28125 -22.304688 16.503906 -22.5 16.640625 -22.78125 C 16.773438 -23.0625 16.789062 -23.351562 16.6875 -23.65625 C 16.59375 -23.945312 16.410156 -24.164062 16.140625 -24.3125 C 15.867188 -24.46875 15.578125 -24.492188 15.265625 -24.390625 C 14.953125 -24.285156 14.722656 -24.09375 14.578125 -23.8125 C 14.429688 -23.53125 14.40625 -23.242188 14.5 -22.953125 C 14.601562 -22.648438 14.796875 -22.421875 15.078125 -22.265625 C 15.359375 -22.117188 15.65625 -22.097656 15.96875 -22.203125 Z M 10.1875 -1.25 C 9.789062 -0.945312 9.394531 -0.804688 9 -0.828125 C 8.613281 -0.847656 8.226562 -1.019531 7.84375 -1.34375 L 5.609375 -3.03125 C 5.140625 -3.394531 4.910156 -3.78125 4.921875 -4.1875 C 4.941406 -4.601562 5.171875 -5.007812 5.609375 -5.40625 C 6.691406 -6.363281 7.691406 -7.453125 8.609375 -8.671875 C 9.523438 -9.898438 10.25 -11.164062 10.78125 -12.46875 C 11.3125 -13.78125 11.554688 -15.035156 11.515625 -16.234375 L 1.375 -12.5 C 0.320312 -12.101562 -0.394531 -12.445312 -0.78125 -13.53125 L -1.734375 -16.421875 C -2.066406 -17.472656 -1.71875 -18.179688 -0.6875 -18.546875 L 8.796875 -21.859375 C 9.910156 -22.242188 10.488281 -22.304688 10.53125 -22.046875 C 10.550781 -21.992188 10.566406 -21.941406 10.578125 -21.890625 C 10.597656 -21.835938 10.617188 -21.773438 10.640625 -21.703125 C 10.929688 -20.796875 11.421875 -20.035156 12.109375 -19.421875 C 12.804688 -18.816406 13.601562 -18.410156 14.5 -18.203125 C 15.394531 -17.992188 16.300781 -18.035156 17.21875 -18.328125 C 17.21875 -18.328125 17.34375 -18.3125 17.59375 -18.28125 C 17.84375 -18.25 18.09375 -18.160156 18.34375 -18.015625 C 18.601562 -17.878906 18.722656 -17.632812 18.703125 -17.28125 C 18.585938 -15.4375 18.222656 -13.539062 17.609375 -11.59375 C 17.003906 -9.65625 16.097656 -7.796875 14.890625 -6.015625 C 13.679688 -4.234375 12.113281 -2.644531 10.1875 -1.25 Z M 10.1875 -1.25 "/></g></g></g><g fill="#2ecc71" fill-opacity="1"><g transform="translate(199.123793, 55.979986)"><g><path d="M 13.921875 -1.609375 C 13.535156 -1.253906 13.128906 -1.082031 12.703125 -1.09375 C 12.285156 -1.101562 11.894531 -1.269531 11.53125 -1.59375 L 9.140625 -3.6875 C 8.273438 -4.425781 8.269531 -5.234375 9.125 -6.109375 C 10.425781 -7.398438 11.347656 -8.703125 11.890625 -10.015625 C 12.429688 -11.328125 12.679688 -12.628906 12.640625 -13.921875 C 12.609375 -15.210938 12.378906 -16.484375 11.953125 -17.734375 C 11.523438 -18.992188 11.007812 -20.234375 10.40625 -21.453125 C 10.144531 -21.984375 10.09375 -22.4375 10.25 -22.8125 C 10.414062 -23.1875 10.769531 -23.457031 11.3125 -23.625 L 14.765625 -24.703125 C 15.773438 -25.035156 16.46875 -24.769531 16.84375 -23.90625 C 17.457031 -22.363281 17.984375 -20.820312 18.421875 -19.28125 C 18.867188 -17.738281 19.164062 -16.210938 19.3125 -14.703125 C 19.457031 -13.203125 19.382812 -11.707031 19.09375 -10.21875 C 18.800781 -8.726562 18.242188 -7.265625 17.421875 -5.828125 C 16.609375 -4.398438 15.441406 -2.992188 13.921875 -1.609375 Z M 8.421875 -11.375 C 8.742188 -10.28125 8.347656 -9.597656 7.234375 -9.328125 L 4.3125 -8.640625 C 3.289062 -8.398438 2.59375 -8.757812 2.21875 -9.71875 L -0.796875 -17.421875 C -1.191406 -18.492188 -0.867188 -19.21875 0.171875 -19.59375 L 3.828125 -20.84375 C 4.328125 -21.03125 4.769531 -21.03125 5.15625 -20.84375 C 5.539062 -20.65625 5.804688 -20.300781 5.953125 -19.78125 Z M 8.421875 -11.375 "/></g></g></g></svg>